<?xml version="1.0" standalone="no"?>
<!DOCTYPE svg PUBLIC "-//W3C//DTD SVG 20010904//EN"
 "http://www.w3.org/TR/2001/REC-SVG-20010904/DTD/svg10.dtd">
<svg version="1.0" xmlns="http://www.w3.org/2000/svg"
 width="988.000000pt" height="1005.000000pt" viewBox="0 0 988.000000 1005.000000"
 preserveAspectRatio="xMidYMid meet">

<g transform="translate(0.000000,1005.000000) scale(0.100000,-0.100000)"
fill="#000000" stroke="none">
<path d="M4340 10030 c-217 -27 -374 -56 -423 -78 -51 -23 -122 -84 -142 -122
-11 -22 -30 -31 -117 -55 -57 -15 -174 -52 -262 -82 l-159 -54 -63 17 c-42 11
-81 15 -114 11 -55 -7 -204 -68 -381 -158 -221 -113 -283 -166 -315 -273 -14
-48 -20 -54 -112 -116 -53 -35 -152 -106 -220 -157 -110 -84 -127 -93 -166
-93 -59 0 -133 -24 -188 -60 -25 -17 -128 -110 -227 -206 -208 -203 -240 -249
-251 -377 -6 -71 -6 -73 -83 -171 -43 -54 -114 -151 -158 -216 -78 -113 -83
-118 -134 -134 -109 -34 -177 -126 -346 -461 -94 -187 -105 -238 -74 -350 l17
-64 -30 -78 c-34 -88 -102 -301 -122 -380 -11 -43 -21 -57 -57 -82 -49 -35
-95 -101 -117 -170 -21 -62 -72 -341 -87 -471 -14 -122 -3 -179 51 -264 l32
-49 -2 -275 c-1 -249 -3 -278 -19 -301 -68 -97 -76 -153 -51 -360 27 -227 55
-382 78 -434 23 -51 84 -122 122 -142 22 -11 31 -30 55 -117 15 -57 52 -174
82 -262 l54 -159 -17 -63 c-23 -86 -15 -141 41 -272 67 -154 191 -390 232
-439 38 -48 97 -86 158 -102 35 -10 47 -22 105 -109 35 -53 106 -152 157 -220
84 -110 93 -127 93 -166 0 -59 24 -133 60 -188 17 -25 109 -127 205 -225 204
-211 249 -241 373 -252 l77 -7 99 -77 c54 -43 151 -114 216 -158 113 -78 118
-83 134 -134 34 -109 129 -180 462 -347 187 -93 245 -105 349 -73 48 16 62 16
89 6 55 -22 318 -109 409 -136 48 -14 87 -29 87 -34 0 -4 16 -26 35 -49 68
-79 192 -119 537 -171 122 -19 108 -19 -2094 -20 l-2218 -1 0 -25 0 -25 4940
0 4940 0 0 25 0 25 -2182 1 c-1851 1 -2166 3 -2069 14 187 22 382 56 437 76
57 22 137 86 159 128 11 23 29 31 117 56 57 15 174 52 262 82 l159 54 63 -17
c42 -11 81 -15 114 -11 55 7 204 68 381 158 221 113 283 166 315 273 14 48 20
54 112 116 53 35 152 106 220 157 110 84 127 93 166 93 58 0 133 24 187 59 25
17 126 109 225 205 212 205 242 249 253 374 l7 77 77 99 c43 54 114 151 158
216 78 113 83 118 134 134 109 34 177 126 346 461 94 188 106 246 74 350 -16
48 -16 62 -6 89 29 75 110 319 132 399 21 79 27 90 61 112 60 40 98 99 98 154
l0 46 -24 -50 c-25 -54 -72 -115 -87 -115 -6 0 -7 5 -4 10 4 6 10 45 15 88 4
42 29 191 54 331 l46 254 -2 236 -1 236 -8 -181 c-9 -215 -17 -252 -69 -304
-54 -54 -123 -72 -190 -49 -30 11 -32 14 -26 48 8 50 37 85 74 89 17 2 36 9
42 17 26 31 39 502 21 729 -6 79 -12 102 -27 113 -10 7 -25 11 -33 8 -35 -14
-99 101 -71 129 6 6 41 11 79 11 56 0 74 -4 108 -27 70 -46 84 -90 92 -291 l8
-172 1 197 c2 168 -2 230 -28 425 -27 204 -42 297 -70 443 -5 25 -7 47 -4 49
7 8 46 -33 76 -78 l28 -45 0 37 c0 29 -8 46 -37 78 -20 22 -48 46 -63 54 -22
11 -31 30 -55 117 -15 57 -52 174 -82 262 l-54 159 17 63 c11 42 15 81 11 114
-7 55 -68 204 -158 381 -113 221 -166 283 -273 315 -48 14 -54 20 -116 112
-35 53 -106 152 -157 220 -84 110 -93 127 -93 166 0 59 -24 133 -60 188 -17
25 -109 127 -205 225 -204 211 -249 241 -373 252 l-77 7 -99 77 c-54 43 -151
114 -216 158 -113 78 -118 83 -134 134 -34 109 -126 177 -461 346 -188 94
-246 106 -350 74 -48 -16 -62 -16 -89 -6 -50 20 -314 108 -406 136 -76 22 -88
29 -113 65 -32 48 -102 95 -172 116 -70 20 -339 70 -465 85 -122 14 -178 3
-264 -51 l-49 -32 -275 2 c-258 1 -277 2 -303 21 -90 64 -170 75 -369 49z
m295 -50 c44 -21 47 -24 25 -27 -14 -2 -61 -10 -105 -18 -44 -8 -186 -29 -315
-45 -129 -17 -251 -35 -270 -40 -76 -19 -143 -30 -148 -25 -3 3 7 19 23 35 50
52 117 77 290 104 330 53 417 56 500 16z m1038 15 c314 -47 435 -81 505 -139
29 -25 46 -56 22 -41 -6 4 -45 10 -88 15 -42 4 -192 28 -332 53 -140 25 -295
52 -345 59 l-90 15 55 26 c65 32 122 34 273 12z m-295 -85 c67 -6 103 -15 128
-31 71 -44 109 -139 84 -214 -12 -36 -14 -37 -48 -31 -51 8 -86 37 -90 74 -2
17 -9 36 -17 42 -31 26 -502 39 -729 21 -79 -6 -102 -12 -113 -27 -7 -10 -11
-25 -8 -33 14 -35 -101 -99 -129 -71 -6 6 -11 41 -11 79 0 56 4 74 27 108 46
70 90 84 291 93 187 8 468 4 615 -10z m417 -70 c178 -31 215 -40 159 -40 -50
0 -367 59 -378 71 -8 7 -4 9 14 5 14 -3 106 -19 205 -36z m-1347 24 c-8 -7
-322 -53 -367 -54 -70 0 -18 13 136 35 160 23 241 30 231 19z m-417 -80 c62
-31 120 -134 104 -184 -9 -27 -63 -35 -108 -16 -21 8 -37 22 -37 30 0 31 -30
48 -74 41 -118 -20 -600 -175 -706 -228 -44 -21 -45 -23 -45 -68 0 -51 -19
-80 -67 -105 -25 -13 -28 -12 -47 12 -33 42 -45 101 -32 154 19 71 57 111 145
147 188 79 530 189 709 228 66 14 115 11 158 -11z m2235 -25 c262 -71 621
-201 680 -245 70 -52 94 -163 51 -239 -30 -53 -50 -55 -97 -8 -35 36 -38 43
-33 79 3 27 1 43 -8 51 -50 41 -691 253 -766 253 -17 0 -30 -10 -44 -35 -23
-39 -46 -48 -105 -43 -35 3 -39 6 -42 32 -8 69 51 155 124 181 58 21 77 19
240 -26z m-870 -109 c25 -63 55 -78 203 -100 72 -11 187 -32 257 -45 141 -29
177 -25 213 22 17 20 26 24 50 18 16 -3 36 -14 45 -24 16 -17 14 -20 -21 -51
-45 -40 -108 -70 -148 -70 -16 0 -88 11 -160 25 -71 14 -196 34 -278 45 -81
11 -160 26 -175 34 -28 15 -66 53 -96 96 l-18 25 7 -25 c18 -64 77 -123 150
-150 16 -6 90 -20 165 -30 74 -11 192 -31 262 -44 105 -21 137 -24 179 -16 28
5 56 13 62 16 8 5 9 4 2 -3 -16 -17 -75 -33 -118 -33 -22 0 -110 13 -196 29
-86 17 -200 37 -254 45 -54 9 -114 25 -135 35 -50 26 -96 76 -121 131 -38 84
-24 109 62 110 46 0 48 -1 63 -40z m-188 13 c3 -10 -39 -13 -187 -13 -164 0
-191 2 -191 15 0 13 25 15 187 13 138 -2 187 -6 191 -15z m-471 -7 c11 -11
-23 -72 -62 -112 -48 -48 -79 -57 -260 -79 -71 -9 -190 -27 -264 -41 -167 -31
-211 -23 -290 50 l-34 31 22 -32 c46 -67 114 -103 195 -103 28 0 123 11 211
25 88 13 206 31 263 39 82 11 114 20 155 45 47 28 49 29 22 5 -53 -46 -106
-63 -246 -79 -74 -9 -186 -24 -250 -35 -135 -23 -170 -24 -222 -6 -84 30 -176
121 -161 159 8 21 42 43 80 51 26 6 35 3 50 -16 51 -64 83 -69 263 -38 64 10
163 24 221 30 58 6 114 13 125 17 27 7 64 42 82 77 13 26 18 28 55 23 22 -3
42 -8 45 -11z m-1578 -33 c21 -5 17 -9 -35 -35 -33 -15 -70 -35 -84 -43 -14
-8 -86 -42 -160 -76 -74 -33 -182 -86 -239 -117 -256 -140 -243 -133 -236
-109 25 83 96 138 330 253 261 128 337 151 424 127z m3902 -26 c78 -33 353
-180 430 -230 63 -42 129 -115 129 -144 0 -12 -9 -10 -42 10 -24 13 -54 28
-68 32 -14 4 -115 56 -225 115 -110 59 -253 135 -318 168 -66 33 -113 62 -105
65 36 15 145 6 199 -16z m-1826 -23 c8 -20 15 -38 15 -40 0 -2 -105 -4 -234
-4 l-235 0 17 40 17 40 202 0 203 0 15 -36z m-1465 -74 c0 -5 -1 -10 -3 -10
-2 0 -82 -25 -177 -55 -155 -49 -197 -58 -177 -39 7 7 326 112 345 113 6 1 12
-3 12 -9z m2678 -55 c95 -31 172 -60 172 -65 0 -6 -3 -10 -7 -10 -20 0 -353
116 -353 122 0 13 9 11 188 -47z m-3459 11 c-13 -13 -336 -166 -349 -165 -8 0
66 40 165 89 153 75 205 96 184 76z m4236 -91 c92 -49 163 -91 158 -92 -12 -4
-342 170 -343 180 0 12 -6 14 185 -88z m-3396 54 c13 -17 21 -32 19 -33 -6 -6
-416 -136 -427 -136 -6 0 -11 17 -11 38 l0 38 188 61 c103 34 192 62 198 62 5
1 20 -13 33 -30z m2612 -46 l177 -57 5 -40 c2 -23 3 -42 2 -43 -1 -2 -437 139
-444 144 -11 8 55 63 68 58 8 -3 94 -31 192 -62z m329 -18 c25 -13 30 -22 30
-51 0 -66 24 -90 165 -161 71 -36 172 -90 224 -120 107 -63 151 -73 205 -48
36 17 38 17 64 -2 41 -31 39 -49 -10 -75 -31 -16 -60 -22 -104 -22 -56 0 -70
6 -170 62 -60 33 -175 93 -255 132 -164 79 -202 112 -230 192 l-18 53 -1 -39
c0 -51 32 -117 76 -156 19 -17 90 -58 157 -91 67 -34 175 -90 239 -126 103
-57 126 -66 190 -73 l73 -7 -70 -2 c-74 -1 -122 16 -213 73 -23 14 -114 63
-202 107 -169 86 -207 116 -241 193 -24 57 -34 129 -20 155 14 26 67 29 111 6z
m-3440 -37 c0 -39 -33 -114 -63 -146 -12 -13 -112 -68 -222 -122 -110 -55
-229 -115 -264 -134 -76 -43 -148 -48 -221 -16 l-45 20 29 -24 c16 -13 49 -30
73 -36 83 -24 120 -12 395 124 212 105 264 135 297 171 53 58 53 42 0 -18 -34
-40 -75 -64 -287 -169 l-247 -123 -86 0 c-78 0 -90 3 -134 30 -66 41 -75 57
-49 92 12 15 32 34 46 42 22 13 30 12 70 -7 24 -12 55 -22 68 -22 13 0 103 40
200 88 96 48 203 100 237 114 68 28 103 70 103 121 0 30 24 45 73 46 24 1 27
-3 27 -31z m-649 -89 c75 -38 110 -130 59 -156 -43 -22 -95 -17 -114 12 -9 14
-26 25 -37 25 -47 0 -511 -324 -641 -448 -42 -40 -46 -56 -22 -83 21 -23 11
-66 -24 -109 -25 -29 -31 -31 -50 -21 -32 17 -69 70 -81 118 -18 68 2 127 64
188 145 142 619 474 708 496 41 10 92 2 138 -22z m4814 0 c79 -22 515 -330
679 -480 67 -61 86 -98 86 -166 0 -51 -30 -120 -49 -116 -6 2 -10 -2 -8 -9 1
-6 -11 -18 -26 -27 -28 -16 -29 -15 -53 14 -34 42 -40 72 -20 106 10 16 15 37
12 47 -17 54 -615 492 -671 492 -12 0 -31 -11 -43 -25 -25 -29 -57 -32 -107
-11 -41 17 -43 34 -13 88 23 40 66 73 116 88 38 12 51 11 97 -1z m-5035 -328
c0 -4 -19 -21 -42 -36 -24 -16 -93 -66 -155 -111 -62 -46 -115 -79 -118 -74
-5 9 44 48 219 173 78 56 96 65 96 48z m5271 -117 c79 -58 146 -113 147 -121
4 -16 -20 0 -206 137 -94 69 -115 90 -94 90 5 0 74 -48 153 -106z m-5192 59
c17 -10 31 -20 30 -23 -1 -12 -373 -270 -379 -263 -4 5 -10 22 -13 40 -6 31
-3 34 101 111 136 100 212 152 222 152 5 0 22 -8 39 -17z m5141 -109 c80 -58
151 -111 159 -119 9 -9 11 -25 6 -53 l-6 -40 -189 136 c-104 75 -189 139 -189
142 -1 7 51 39 64 40 6 0 76 -48 155 -106z m-5998 -76 c-97 -95 -237 -234
-309 -308 l-133 -135 0 36 c0 78 49 147 237 328 96 93 192 182 213 196 46 32
104 54 142 55 24 0 4 -23 -150 -172z m6607 127 c61 -29 153 -114 332 -308 92
-100 123 -140 139 -183 45 -123 32 -116 -157 79 -98 100 -236 239 -308 309
l-130 128 35 0 c19 0 59 -11 89 -25z m-325 -155 c49 -18 66 -45 60 -94 -4 -25
-3 -57 0 -71 8 -30 352 -391 394 -414 15 -8 42 -11 69 -8 38 4 46 1 63 -21 41
-51 21 -72 -70 -72 -71 0 -119 29 -216 131 -49 51 -144 147 -211 212 -132 129
-144 149 -144 244 0 38 -3 52 -10 42 -5 -8 -9 -44 -9 -80 0 -50 6 -76 23 -107
12 -22 114 -135 227 -250 166 -169 214 -212 250 -225 40 -15 41 -16 10 -11
-60 10 -104 45 -238 189 -71 77 -156 165 -187 195 -73 70 -97 121 -97 209 0
74 22 141 46 141 8 0 26 -4 40 -10z m-6234 -3 c0 -11 -274 -273 -288 -275 -9
-2 48 59 128 137 127 123 160 151 160 138z m364 -29 c11 -43 5 -113 -13 -154
-11 -24 -57 -78 -112 -130 -51 -49 -147 -144 -212 -211 -130 -134 -151 -146
-251 -145 -42 0 -55 -3 -41 -8 11 -5 50 -9 86 -9 50 -1 75 4 107 22 22 12 135
114 250 227 168 165 212 214 226 250 10 28 14 34 10 15 -12 -66 -46 -112 -157
-213 -63 -57 -152 -142 -198 -189 -100 -103 -144 -126 -239 -125 -73 0 -140
23 -140 47 0 28 28 83 47 94 11 5 38 7 60 4 23 -3 54 -2 68 1 30 8 391 352
414 394 8 15 11 42 8 69 -4 38 -1 46 21 63 33 26 58 25 66 -2z m6485 -271 c8
-21 -19 4 -146 134 -73 74 -133 141 -133 149 0 12 271 -262 279 -283z m-7029
-36 c19 -11 34 -24 33 -30 -2 -6 2 -10 9 -8 6 1 18 -11 27 -26 16 -28 15 -29
-14 -53 -42 -34 -69 -39 -110 -20 -22 11 -41 14 -50 9 -63 -36 -485 -617 -485
-668 0 -12 11 -31 25 -43 29 -25 32 -57 11 -107 -18 -42 -35 -44 -90 -11 -70
41 -109 138 -86 213 26 82 361 554 488 687 26 26 61 54 77 62 44 20 124 17
165 -5z m7098 -28 c52 -25 225 -239 394 -488 138 -202 161 -246 161 -308 1
-89 -56 -168 -131 -183 -26 -5 -32 -2 -46 24 -25 48 -21 97 9 116 14 9 25 26
25 37 0 47 -324 511 -448 642 -40 41 -56 45 -83 21 -23 -21 -66 -11 -109 25
l-34 28 22 30 c54 77 149 99 240 56z m-7285 -386 c-156 -217 -220 -295 -199
-242 12 32 212 295 224 295 8 0 -3 -22 -25 -53z m7401 -136 c90 -125 109 -157
87 -149 -15 5 -230 306 -223 313 9 9 33 -19 136 -164z m-7267 153 l30 -6 -124
-166 c-68 -92 -131 -178 -141 -191 l-18 -24 -21 35 -20 35 21 29 c120 168 218
294 230 294 7 0 27 -3 43 -6z m7178 -151 c55 -76 108 -150 119 -165 19 -27 19
-28 0 -63 -10 -19 -21 -35 -24 -34 -8 0 -265 363 -265 374 0 8 15 14 66 24 3
0 50 -61 104 -136z m-7858 -115 c-13 -24 -28 -54 -32 -68 -4 -14 -58 -119
-120 -235 -62 -115 -137 -259 -168 -318 -59 -118 -67 -119 -67 -14 1 75 18
120 129 329 105 199 156 275 209 315 63 48 80 44 49 -9z m4151 28 c33 -17 60
-53 101 -135 26 -51 30 -65 20 -77 -10 -13 -17 -6 -43 42 -17 32 -48 71 -69
88 -34 27 -46 31 -97 30 -73 -1 -134 -35 -190 -105 -43 -54 -46 -56 -29 -12
47 127 213 218 307 169z m4280 -38 c52 -32 97 -100 191 -292 137 -279 158
-347 135 -434 -6 -21 -11 -16 -39 40 -43 83 -115 228 -209 418 -42 85 -94 188
-116 228 -36 67 -37 73 -17 66 12 -3 37 -15 55 -26z m-3515 -34 c56 -40 99
-111 105 -176 3 -36 2 -49 -7 -44 -6 4 -11 1 -11 -8 0 -21 -37 -39 -66 -32
-63 16 -122 102 -148 214 -12 53 -13 55 -25 35 -18 -35 -29 -110 -21 -146 7
-27 8 -23 10 28 l1 60 13 -40 c7 -22 25 -64 40 -92 14 -29 24 -53 21 -53 -3 0
-19 19 -36 43 -23 31 -29 35 -24 17 12 -39 35 -69 64 -85 19 -10 22 -15 11
-19 -28 -9 -121 -26 -146 -26 -27 0 -68 -17 -129 -55 -72 -45 -113 -28 -180
75 -39 61 -41 61 -20 -1 13 -39 13 -42 0 -24 -17 21 -35 79 -35 110 0 16 7 12
35 -20 l35 -40 -27 58 c-15 31 -31 57 -34 57 -15 0 -158 -103 -214 -154 l-60
-55 50 -1 c91 0 149 -59 143 -143 l-3 -42 -17 38 c-52 115 -133 156 -204 102
-15 -11 -10 -11 24 2 39 15 45 15 77 0 35 -17 90 -87 100 -129 9 -36 -17 -91
-57 -122 -42 -31 -59 -33 -83 -6 -10 11 -21 17 -25 15 -4 -3 -13 2 -20 10 -7
8 -18 15 -25 15 -6 0 -20 9 -30 20 -10 11 -20 18 -22 16 -6 -6 36 -88 61 -116
l21 -25 -24 20 c-32 27 -71 97 -82 146 -13 55 11 107 86 187 122 132 311 263
499 344 192 84 302 96 379 42z m3203 -58 c40 -40 41 -48 14 -101 -11 -22 -20
-50 -20 -64 0 -14 40 -104 88 -201 48 -96 100 -203 114 -237 28 -68 70 -103
121 -103 30 0 47 -28 47 -76 0 -21 -5 -24 -32 -24 -39 0 -114 33 -146 63 -13
12 -68 112 -122 222 -55 110 -115 229 -134 264 -43 76 -48 148 -16 221 l20 45
-24 -29 c-13 -16 -30 -49 -36 -73 -24 -83 -12 -120 124 -395 114 -231 132
-262 179 -304 29 -26 41 -41 29 -35 -72 38 -101 81 -223 330 -106 214 -123
254 -127 306 -2 33 1 79 7 101 13 50 65 124 87 124 9 0 31 -15 50 -34z m-7784
-28 c16 -31 22 -60 22 -104 0 -56 -6 -71 -56 -160 -50 -89 -148 -281 -192
-375 -25 -53 -78 -99 -138 -120 l-53 -18 39 -1 c51 0 117 32 156 76 17 19 58
90 91 157 34 67 91 175 127 241 56 101 67 128 72 185 l7 66 2 -66 c1 -73 1
-73 -128 -309 -35 -63 -75 -142 -90 -175 -36 -80 -81 -129 -144 -159 -64 -31
-150 -44 -172 -26 -19 16 -19 73 0 110 13 25 22 30 51 30 66 0 90 24 161 165
36 71 90 172 120 224 62 105 74 153 49 202 -20 41 -20 41 5 73 29 36 45 33 71
-16z m3123 -20 c76 -17 128 -42 197 -96 66 -51 163 -105 179 -100 5 2 -12 20
-39 40 -26 21 -57 47 -67 58 l-19 21 60 -6 c131 -13 220 -27 282 -47 l64 -20
-71 -71 c-100 -101 -124 -140 -129 -208 -5 -67 26 -137 88 -199 l40 -40 -30
-22 c-104 -77 -88 -252 34 -354 40 -33 44 -40 49 -95 6 -72 37 -127 104 -189
26 -25 74 -82 107 -126 l59 -80 71 -11 c39 -6 79 -14 89 -18 16 -7 16 -4 -3
39 -10 25 -17 46 -15 46 2 0 39 -43 81 -95 42 -52 78 -95 80 -95 1 0 -10 32
-27 72 -16 39 -28 72 -26 74 1 2 22 -10 45 -26 29 -20 66 -32 117 -41 l73 -11
26 -104 c31 -123 32 -131 10 -113 -23 19 -53 82 -68 147 -14 56 -14 56 -15 17
-1 -56 13 -100 55 -167 30 -49 35 -67 34 -111 -2 -70 -1 -77 9 -77 5 0 13 19
17 43 l7 42 20 -77 c20 -83 28 -90 108 -101 l36 -5 -33 102 c-53 165 -57 250
-11 261 57 15 322 -101 557 -243 213 -128 714 -454 875 -568 37 -27 25 -12
-48 59 l-99 95 55 31 c61 35 178 81 206 81 29 0 48 -31 60 -93 6 -32 17 -68
26 -80 19 -27 19 -90 0 -153 -19 -63 -19 -117 0 -154 19 -37 28 -39 15 -4 -14
36 -12 93 5 150 19 62 19 134 1 160 -8 11 -20 50 -26 86 -19 106 -60 137 -184
138 -48 0 -52 2 -110 65 -66 71 -106 88 -141 61 -19 -14 -18 -15 15 -10 l36 6
-6 -53 c-7 -69 -24 -73 -80 -20 -42 40 -43 42 -36 90 9 67 39 150 86 240 30
57 34 69 15 46 -38 -46 -93 -155 -110 -220 -8 -32 -17 -60 -19 -63 -11 -11
-30 90 -29 158 1 67 13 120 48 205 8 20 8 20 -14 1 -36 -32 -91 -155 -111
-251 -21 -100 -26 -78 -9 42 41 302 227 537 468 593 74 17 232 7 354 -23 54
-13 100 -27 103 -30 3 -2 2 -16 -2 -31 -6 -24 -11 -26 -63 -28 l-56 -2 54 -3
53 -4 -7 -46 c-10 -69 -11 -70 -83 -77 -85 -8 -96 -15 -83 -48 9 -24 13 -26
48 -18 21 4 62 11 91 14 l54 7 -7 -40 c-8 -50 15 -144 56 -225 31 -64 28 -76
-20 -76 -41 0 -142 -31 -208 -62 -35 -17 -62 -33 -60 -34 1 -2 20 1 42 6 56
13 192 11 240 -4 39 -12 37 -12 -65 -19 -121 -7 -267 -41 -360 -85 -59 -28
-62 -30 -33 -31 41 -1 83 -17 109 -42 19 -18 27 -19 85 -10 35 6 93 11 129 12
l65 1 -75 19 c-41 10 -109 22 -150 27 l-75 8 68 22 c94 30 227 45 310 35 l69
-8 27 -71 c33 -86 80 -168 131 -233 l38 -48 -69 -49 c-38 -27 -69 -51 -69 -54
0 -3 10 -17 23 -32 l22 -28 55 36 c100 66 151 85 204 78 l48 -7 -89 -46 c-48
-26 -111 -61 -140 -79 -49 -31 -52 -35 -46 -65 3 -18 7 -33 7 -34 1 -1 26 14
55 33 68 46 132 74 293 129 l128 44 57 -26 c32 -14 69 -30 83 -35 25 -10 25
-10 -30 -58 l-54 -48 59 10 c33 5 77 7 98 4 24 -4 48 -1 67 9 29 15 36 14 153
-23 67 -22 157 -48 201 -58 l78 -18 -4 -106 c-3 -63 -11 -120 -20 -141 l-16
-37 40 -5 c43 -6 85 -38 74 -55 -4 -7 -16 -6 -34 4 -36 19 -57 18 -190 -7
-113 -21 -114 -21 -133 -2 -13 13 -22 41 -28 84 l-7 64 -8 -55 c-9 -64 2 -102
37 -125 21 -13 35 -14 95 -5 123 20 127 15 51 -60 -74 -73 -177 -133 -323
-186 -84 -31 -87 -34 -41 -28 73 9 264 60 336 89 34 14 65 25 68 25 11 0 -128
-90 -186 -120 -76 -39 -192 -68 -309 -76 -85 -6 -92 -8 -84 -25 18 -32 11 -76
-16 -109 -15 -17 -24 -34 -20 -37 3 -3 32 7 63 23 39 19 76 30 119 32 59 4 63
3 102 -32 l41 -37 49 25 c84 43 225 142 300 211 40 37 72 63 72 58 0 -4 -38
-53 -84 -108 -76 -91 -144 -157 -230 -224 l-31 -23 100 5 c92 4 97 4 63 -8
-114 -41 -185 -28 -261 50 -79 79 -135 83 -259 18 -59 -31 -83 -28 -83 12 0
40 -9 51 -56 76 -50 25 -121 27 -190 4 -68 -23 -128 -16 -180 21 -70 49 -105
65 -161 70 l-53 4 54 -15 c45 -13 121 -56 121 -69 0 -2 -37 -25 -82 -50 -118
-66 -276 -211 -361 -330 -17 -24 -10 -21 49 21 146 105 270 168 401 204 73 20
89 21 243 13 231 -12 416 -11 476 4 l51 13 36 -36 35 -35 -38 -20 c-53 -27
-153 -50 -220 -50 -30 0 -109 9 -175 20 -66 11 -158 23 -205 26 -100 7 -159
-9 -305 -84 -98 -50 -449 -281 -441 -289 3 -3 67 28 143 68 406 214 440 226
572 214 l76 -8 -80 -27 c-129 -43 -184 -75 -431 -251 -257 -183 -426 -278
-626 -355 -51 -20 -95 -38 -97 -40 -2 -2 27 -1 65 2 66 5 68 4 42 -10 -15 -9
-67 -29 -116 -46 -98 -33 -217 -41 -283 -19 -95 32 -308 224 -444 399 l-50 65
95 -84 c355 -314 643 -353 873 -119 38 38 67 71 65 74 -2 2 -38 -14 -79 -35
-110 -58 -182 -74 -314 -69 -178 8 -320 64 -553 220 -57 38 -102 71 -100 73 2
3 24 -2 49 -9 78 -24 230 -46 308 -45 l76 0 -81 24 c-117 35 -197 66 -304 120
-90 45 -263 156 -276 177 -4 6 15 9 50 6 47 -2 54 -1 39 10 -23 17 -109 15
-173 -4 -70 -21 -127 -14 -186 22 -96 59 -109 64 -156 64 -52 0 -108 -17 -92
-28 6 -4 30 -36 54 -72 139 -208 359 -422 537 -522 82 -46 62 -45 -24 2 -292
157 -563 456 -738 815 -85 173 -88 188 -30 126 25 -27 81 -78 123 -113 l77
-63 -65 80 c-196 240 -314 526 -380 912 -11 68 -25 135 -31 150 -6 16 -43 62
-83 103 -92 95 -115 146 -97 223 18 80 26 82 27 7 2 -85 24 -133 85 -178 124
-93 122 -90 160 -222 l21 -75 20 39 c31 61 35 143 9 201 -25 57 -26 84 -5 165
19 74 12 129 -22 170 -29 34 -78 53 -198 74 -82 16 -154 41 -143 52 2 3 17 0
33 -6 16 -6 67 -16 114 -21 169 -19 234 -61 255 -166 l12 -58 16 32 c22 41 21
78 -3 128 -11 22 -19 57 -20 78 0 72 -55 137 -132 158 -44 11 -443 10 -430 -2
4 -4 61 -19 127 -34 185 -42 266 -65 318 -92 27 -13 47 -26 45 -28 -6 -6 -150
22 -233 45 -38 11 -115 29 -170 39 -110 21 -269 76 -245 84 8 3 83 18 165 34
175 32 339 36 418 10 26 -8 47 -13 47 -11 0 11 -86 44 -153 58 -119 25 -170
21 -390 -34 -207 -50 -373 -79 -468 -81 l-54 -1 40 -13 c22 -6 90 -15 150 -19
137 -9 234 -30 305 -67 64 -33 97 -55 65 -44 -90 33 -406 87 -421 72 -2 -2 21
-9 52 -16 88 -20 57 -23 -66 -6 -62 9 -114 14 -116 12 -6 -6 157 -108 220
-138 92 -43 178 -61 321 -68 115 -6 124 -8 81 -15 -65 -12 -233 -1 -323 19
-80 18 -146 57 -272 158 -43 34 -86 68 -97 75 -16 11 -10 12 41 7 79 -7 57 6
-81 46 -134 38 -198 71 -215 111 -15 37 -7 134 17 179 9 19 21 48 25 64 l7 30
1 -32 1 -31 48 15 c74 23 129 12 249 -48 60 -29 113 -55 118 -57 6 -2 -21 19
-60 48 -38 28 -72 54 -75 57 -3 3 38 3 90 -1 l95 -6 16 35 16 34 -31 10 c-63
20 -154 30 -256 28 -73 -1 -114 3 -135 13 l-30 14 60 7 c122 14 249 10 331
-11 74 -19 80 -19 91 -3 10 13 10 18 0 25 -30 19 -202 48 -318 54 -91 4 -145
12 -193 28 -36 12 -66 21 -66 20 0 -2 19 -14 43 -28 l42 -26 -30 0 c-16 0 -49
9 -72 20 -42 19 -43 19 -43 0 0 -10 12 -33 28 -51 l27 -34 -33 23 c-47 34 -54
54 -53 157 1 124 4 131 46 105 35 -22 181 -77 151 -57 -114 75 -157 110 -154
125 3 17 82 82 101 82 6 0 2 -7 -9 -15 -18 -13 -17 -14 18 -15 25 0 69 -17
133 -50 104 -55 206 -95 330 -130 43 -12 86 -24 95 -27 8 -3 -34 23 -95 57
-144 81 -232 141 -278 188 l-37 38 87 -8 c136 -12 139 -13 307 -104 143 -77
161 -84 174 -70 9 9 14 17 11 19 -2 2 -60 33 -129 69 -69 36 -182 95 -252 132
-69 36 -130 66 -134 66 -4 0 3 -11 16 -25 l23 -24 -39 11 c-53 14 -149 63
-206 105 -27 19 -48 31 -48 26 0 -4 16 -32 35 -60 19 -29 35 -55 35 -58 0 -14
-24 -2 -51 24 -31 31 -35 31 -19 0 6 -10 8 -19 6 -19 -13 0 -36 62 -36 96 0
44 26 142 44 166 12 17 17 16 67 -11 97 -52 111 -50 52 7 -29 28 -53 55 -53
61 0 22 66 32 136 21 77 -12 133 -35 196 -78 39 -27 141 -82 152 -82 6 0 -74
125 -124 193 -29 39 -59 67 -85 79 -22 11 -51 25 -65 31 -14 7 -35 30 -48 52
l-24 40 6 -40 c18 -113 15 -136 -5 -50 -22 99 -21 178 5 217 22 34 92 83 146
101 46 16 82 15 175 -5z m-3543 -145 c-27 -49 -66 -122 -87 -163 -42 -84 -43
-85 -50 -78 -3 3 36 83 87 178 51 95 94 168 96 162 2 -6 -19 -50 -46 -99z
m8634 -160 c29 -62 50 -113 45 -113 -10 0 -171 330 -171 350 1 17 48 -72 126
-237z m-3426 37 c21 -11 47 -31 59 -46 28 -35 58 -119 65 -179 3 -32 2 -39 -2
-20 l-8 30 -17 -31 c-9 -17 -26 -34 -38 -37 -49 -13 -130 60 -128 116 l0 32
20 -40 c13 -27 18 -32 15 -15 -3 14 -8 44 -12 68 -12 78 -25 57 -47 -78 -3
-14 -5 4 -5 40 0 36 -5 88 -9 115 l-9 50 -19 -30 c-16 -23 -20 -46 -20 -118 0
-84 -1 -87 -14 -55 -8 20 -11 53 -8 82 l4 50 -15 -30 c-8 -16 -15 -49 -15 -73
0 -41 4 -49 47 -88 26 -24 42 -43 34 -44 -7 0 -70 -6 -140 -13 -114 -12 -131
-16 -174 -44 -82 -55 -138 -41 -206 52 -23 32 -29 35 -23 16 4 -14 16 -40 27
-59 14 -24 15 -31 4 -22 -24 20 -56 94 -56 131 l0 34 30 -47 c16 -26 32 -47
34 -47 2 0 -7 29 -22 65 -14 36 -29 65 -33 65 -10 0 -154 -110 -209 -159 -43
-39 -44 -42 -25 -53 57 -34 103 -121 93 -179 -4 -23 -5 -23 -16 6 -38 93 -92
155 -137 155 -14 0 -25 3 -25 8 1 9 186 155 269 211 111 75 240 122 511 186
115 27 160 26 220 -5z m-5165 -163 c53 -30 55 -50 8 -97 -36 -35 -43 -38 -79
-33 -27 3 -43 1 -51 -9 -41 -49 -253 -691 -253 -765 0 -17 10 -30 35 -44 39
-23 48 -46 43 -105 -3 -35 -6 -39 -32 -42 -72 -9 -164 59 -185 135 -16 56 -15
67 30 229 71 263 200 619 245 680 52 70 163 94 239 51z m495 -47 c364 -183
553 -468 549 -829 -1 -82 -3 -91 -11 -61 -40 140 -75 237 -114 315 -24 50 -42
81 -38 70 45 -154 56 -220 61 -346 6 -140 -6 -217 -41 -264 -12 -17 -14 -8 -9
85 6 118 -13 251 -48 345 -12 31 -45 93 -75 138 -30 44 -54 86 -54 92 0 22 32
26 59 8 23 -15 25 -15 13 0 -26 31 -52 31 -92 -2 -21 -17 -45 -31 -53 -31 -8
0 -32 16 -53 35 -51 47 -57 44 -9 -5 40 -41 62 -48 95 -30 16 9 24 3 48 -32
76 -111 102 -204 102 -368 0 -191 -37 -315 -115 -390 l-37 -35 30 55 c64 117
89 248 77 416 -7 108 -18 131 -30 67 -21 -116 -112 -260 -182 -289 -57 -24
-66 -20 -91 49 -40 109 -40 103 -2 81 18 -10 43 -35 57 -54 21 -30 24 -31 18
-10 -4 14 -21 39 -40 57 -35 33 -88 48 -197 56 -51 3 -58 1 -58 -14 0 -25 -56
-87 -99 -109 -47 -23 -180 -64 -188 -57 -3 4 -3 17 1 30 4 17 15 27 38 32 l33
7 -33 16 c-20 10 -35 26 -38 41 -3 15 -15 47 -26 72 -23 53 -18 95 10 80 9 -5
57 -46 106 -92 l88 -83 29 32 c34 38 37 62 8 88 -12 10 -39 54 -60 96 -39 78
-62 101 -110 113 l-27 7 35 105 c34 101 36 104 53 87 36 -38 129 -188 181
-293 l54 -109 43 -3 c23 -2 42 -1 42 2 0 25 -158 243 -263 361 l-68 78 12 41
c9 27 22 45 41 55 45 23 97 73 125 121 l25 44 47 -27 c108 -62 188 -122 272
-202 49 -46 89 -79 89 -72 0 36 -201 227 -338 321 -48 33 -51 37 -38 55 14 18
20 16 167 -59 84 -42 144 -68 135 -58 -23 25 -147 111 -201 139 -68 36 -67 36
-54 66 15 32 19 31 149 -34z m8104 29 c80 -20 109 -55 164 -197 109 -275 213
-628 214 -723 2 -94 -57 -168 -149 -190 -53 -12 -71 -3 -78 35 -8 39 17 106
39 106 31 0 48 30 40 74 -20 121 -167 579 -223 696 -26 55 -26 55 -72 55 -51
0 -80 19 -105 66 -12 24 -11 28 6 44 19 17 84 44 108 45 7 0 33 -5 56 -11z
m-3315 -226 c29 -45 59 -130 67 -194 6 -45 5 -49 -14 -49 -27 0 -34 11 -53 90
l-17 65 -1 -44 c-2 -81 -24 -29 -30 71 l-6 93 -24 -33 c-29 -41 -42 -97 -31
-126 7 -17 9 -14 10 19 l2 40 8 -40 c4 -22 10 -60 14 -85 l6 -45 -26 30 c-25
29 -25 29 -19 5 7 -25 42 -64 67 -73 34 -12 -14 -21 -141 -26 -134 -6 -141 -8
-168 -33 -56 -53 -107 -58 -170 -15 -31 21 -47 46 -20 31 6 -4 -2 6 -20 22
-36 33 -80 99 -51 76 16 -13 16 -11 8 20 -16 55 -10 56 14 3 41 -86 57 -94 21
-9 -19 44 -37 94 -41 111 -5 27 -2 31 26 43 22 9 38 10 49 4 9 -5 37 -52 63
-104 27 -52 48 -87 48 -78 0 28 -40 120 -67 156 -14 19 -21 37 -17 42 5 4 63
17 129 29 180 31 234 38 300 40 58 1 61 0 84 -36z m64 -4 c35 -23 54 -46 77
-92 38 -79 56 -165 42 -203 -10 -27 -10 -25 -11 24 l-1 53 -28 -21 c-46 -34
-62 -19 -62 55 0 71 -19 134 -56 182 -31 41 -21 42 39 2z m-1103 -30 c39 -40
72 -103 73 -143 1 -45 -27 -80 -89 -113 l-54 -28 -27 28 c-16 15 -45 38 -65
52 l-37 24 9 -25 c5 -13 17 -38 26 -55 8 -17 11 -28 5 -24 -26 15 -61 105 -60
152 1 89 12 94 47 20 41 -89 49 -86 9 4 l-32 71 40 34 c55 46 110 47 155 3z
m3992 -6 c19 -20 19 -20 -69 -27 -99 -8 -255 -28 -250 -32 1 -2 42 -8 91 -14
48 -6 106 -18 129 -27 50 -19 109 -61 103 -72 -3 -4 -52 -11 -108 -14 -130 -8
-278 -45 -388 -98 -71 -34 -82 -42 -67 -50 13 -8 38 -2 100 25 108 46 187 65
310 76 89 8 286 -1 323 -14 16 -6 78 -196 68 -205 -5 -5 -38 -16 -74 -26 -68
-18 -273 -96 -267 -101 1 -2 45 8 98 21 52 13 134 31 182 38 l87 14 16 -53
c14 -48 14 -56 -1 -83 -34 -68 -37 -141 -10 -267 4 -17 -5 -28 -37 -49 -23
-15 -100 -84 -172 -154 -183 -177 -289 -227 -558 -267 -229 -33 -320 26 -288
190 15 77 53 161 78 175 31 17 92 13 139 -9 48 -21 66 -52 83 -143 16 -82 29
-88 173 -85 105 3 113 4 89 17 -19 10 -47 12 -109 7 -101 -7 -115 2 -133 90
-18 85 -28 101 -79 126 -34 17 -64 23 -117 23 l-71 0 -66 -62 c-70 -65 -117
-87 -164 -74 -29 8 -24 14 20 25 34 8 107 72 107 94 0 41 36 156 75 238 40 86
113 204 177 285 15 20 28 40 28 44 0 15 -122 -89 -200 -172 -131 -137 -230
-298 -295 -479 l-25 -69 6 50 c21 190 137 407 309 581 109 110 172 155 200
143 35 -14 108 -9 175 10 76 23 60 28 -20 6 -87 -23 -128 -19 -206 20 -38 19
-76 35 -85 35 -39 0 -111 -34 -139 -66 -27 -31 -106 -174 -97 -174 2 0 20 24
40 54 77 116 141 166 209 166 61 0 67 -15 23 -54 -22 -19 -43 -35 -47 -36 -18
-1 -237 -255 -293 -340 -67 -101 -84 -135 -121 -245 l-24 -70 5 125 c4 129 26
240 65 327 47 107 -15 24 -92 -122 -26 -49 -48 -82 -48 -73 -1 45 24 178 42
227 46 125 189 303 332 416 202 157 372 208 670 201 131 -3 151 -6 168 -23z
m-3582 -42 c0 -4 -51 -38 -112 -75 -166 -98 -157 -88 -108 -132 67 -60 104
-158 79 -206 -16 -31 -50 -68 -74 -80 -16 -8 -14 -5 6 18 55 61 57 87 14 174
-26 51 -69 94 -103 105 -21 6 -16 12 50 58 79 56 228 147 241 147 4 0 7 -4 7
-9z m-4613 -54 c-3 -8 -36 -108 -73 -223 -37 -115 -69 -211 -71 -213 -2 -3
-17 8 -33 25 l-29 29 62 190 62 190 35 6 c19 4 39 7 44 8 4 0 6 -5 3 -12z
m-137 -3 c0 -21 -114 -354 -121 -354 -5 0 -9 5 -9 11 0 25 112 349 121 349 5
0 9 -3 9 -6z m8659 -220 l63 -197 -29 -23 c-15 -13 -30 -23 -33 -24 -5 0 -141
418 -140 433 0 4 17 7 38 7 l38 0 63 -196z m67 20 c49 -153 59 -203 38 -182
-4 5 -114 345 -114 355 0 2 4 3 10 3 5 0 35 -79 66 -176z m-4231 19 c37 -38
75 -115 75 -154 0 -25 -11 -43 -53 -86 -30 -29 -62 -53 -71 -53 -9 0 -33 18
-54 39 -20 22 -54 53 -74 71 l-38 32 12 -34 c6 -18 23 -51 36 -73 15 -23 18
-34 9 -27 -27 23 -67 114 -67 155 0 21 5 48 11 60 11 20 13 18 35 -24 26 -50
31 -48 9 4 -22 54 -19 63 28 91 57 35 106 34 142 -1z m983 -246 c30 -69 43
-64 15 5 -14 34 -28 88 -30 120 -6 57 -5 58 20 58 16 0 31 -8 37 -20 15 -29
40 -163 40 -217 0 -44 -1 -45 -26 -39 -72 18 -116 90 -118 193 0 35 -4 63 -8
63 -4 0 -15 -11 -24 -25 -13 -20 -15 -39 -11 -83 4 -37 3 -51 -3 -42 -5 8 -10
35 -11 60 0 34 -2 40 -9 25 -15 -34 -11 -79 10 -113 11 -18 20 -34 20 -35 0
-2 -20 -13 -44 -26 -47 -23 -134 -41 -202 -41 -40 0 -40 0 -57 53 -9 29 -23
62 -32 72 -13 18 -14 15 -15 -44 0 -46 -6 -78 -22 -110 l-23 -46 -6 75 c-9 99
-37 181 -67 196 -21 10 -15 12 45 19 37 3 129 18 203 32 74 13 167 30 205 37
l70 12 12 -67 c6 -37 20 -88 31 -112z m114 136 c32 -35 54 -191 38 -273 -13
-67 -47 -117 -108 -159 l-47 -33 41 39 c65 60 87 100 108 195 6 26 6 27 -21
13 l-28 -15 -6 103 c-3 56 -11 115 -18 130 -6 16 -11 30 -11 33 0 8 35 -14 52
-33z m-5450 -42 c31 -25 101 -151 72 -130 -94 69 -152 122 -147 135 7 20 46
17 75 -5z m4776 -30 c12 -7 42 -90 42 -117 0 -7 -31 -19 -77 -30 -43 -10 -81
-20 -85 -23 -3 -3 -4 -19 -1 -35 5 -27 8 -28 45 -22 61 10 107 33 118 58 l9
23 0 -22 c1 -33 -30 -59 -95 -80 l-57 -18 -16 23 c-9 13 -31 42 -50 65 -33 41
-34 41 -27 12 15 -60 44 -113 77 -138 60 -45 106 -52 339 -51 191 1 205 0 125
-9 -49 -5 -155 -10 -235 -11 -160 -1 -182 5 -248 68 -43 40 -60 73 -73 140
-10 57 -2 95 29 130 16 17 18 15 29 -45 l12 -64 -6 67 c-5 64 -4 68 18 77 30
12 110 13 127 2z m-5363 -51 c-4 -6 -10 -45 -15 -88 -5 -42 -22 -143 -39 -224
-17 -81 -38 -202 -47 -270 -9 -68 -22 -157 -29 -198 l-12 -75 -26 55 c-33 68
-34 126 -7 300 47 306 76 408 135 479 25 28 54 44 40 21z m9252 -25 c13 -9 27
-35 34 -58 10 -38 9 -43 -13 -62 -63 -54 -69 -88 -42 -240 9 -49 24 -157 34
-238 19 -160 28 -180 94 -214 26 -13 28 -18 23 -55 -3 -22 -8 -42 -11 -46 -9
-8 -66 21 -103 52 -48 40 -64 87 -84 243 -10 79 -31 211 -45 293 -27 147 -27
149 -9 196 10 26 34 65 54 88 l36 41 -35 -26 c-19 -14 -48 -45 -65 -68 -41
-58 -43 -126 -11 -331 14 -91 32 -211 40 -268 11 -84 20 -113 46 -155 23 -38
26 -47 11 -33 -45 41 -70 115 -86 256 -9 74 -24 187 -35 251 -11 64 -20 131
-20 150 1 73 56 172 119 215 42 28 41 28 68 9z m-8862 -99 c31 -62 31 -80 0
-241 -14 -71 -34 -196 -45 -278 -11 -81 -26 -160 -34 -175 -15 -28 -54 -68
-96 -95 -30 -21 -21 -22 23 -3 44 18 96 72 119 123 10 23 27 104 38 180 11 76
31 195 44 265 21 105 24 137 16 179 -5 28 -13 56 -16 62 -5 8 -4 9 3 2 17 -17
33 -75 33 -119 0 -23 -11 -95 -24 -161 -13 -66 -31 -172 -40 -235 -9 -63 -24
-135 -33 -159 -21 -60 -77 -119 -138 -147 -88 -42 -115 -28 -115 60 0 44 1 47
40 62 63 25 78 55 100 206 12 73 32 188 46 256 13 67 21 134 18 147 -3 14 -20
40 -36 57 -32 34 -32 66 0 101 15 17 17 16 44 -10 15 -15 39 -49 53 -77z m512
-88 c40 -118 40 -118 -29 -43 -72 77 -79 105 -24 105 29 0 32 -4 53 -62z
m-911 -181 c-14 -78 -28 -161 -31 -184 -4 -24 -11 -46 -17 -49 -6 -4 -8 4 -5
22 3 16 9 49 12 74 13 95 59 314 63 297 2 -10 -8 -82 -22 -160z m9570 -34 c24
-171 29 -231 18 -220 -7 7 -54 328 -54 371 0 65 13 8 36 -151z m-8797 122 c18
-25 30 -45 26 -45 -9 0 -88 41 -103 53 -11 8 -9 13 10 23 32 18 31 19 67 -31z
m1483 3 c74 -34 118 -70 172 -138 125 -158 192 -417 159 -614 -6 -37 -7 -35
-25 51 -22 113 -41 162 -30 83 14 -106 5 -289 -17 -375 -27 -106 -92 -232
-148 -290 -49 -51 -63 -49 -63 10 0 47 -30 209 -41 220 -5 5 -9 -6 -9 -32 0
-66 -29 -212 -61 -307 -56 -169 -109 -246 -239 -349 -151 -120 -286 -164 -479
-154 -224 12 -323 49 -436 163 -84 83 -145 196 -174 319 -22 90 -33 215 -20
215 5 0 9 -13 9 -29 0 -48 49 -201 88 -275 54 -103 149 -194 253 -244 46 -22
109 -46 139 -53 80 -19 290 -16 369 5 127 34 253 115 342 218 64 75 70 89 19
45 -97 -83 -279 -147 -414 -147 -149 1 -318 62 -421 154 l-50 45 75 -29 c85
-32 210 -60 267 -60 38 1 37 1 -33 34 -178 84 -361 250 -456 416 -79 138 -78
347 2 516 118 246 419 291 770 114 117 -60 114 -56 100 -126 -14 -67 -16 -178
-3 -211 5 -14 8 20 8 90 0 96 4 123 28 191 27 76 27 80 13 130 -24 81 -50 115
-109 141 -28 13 -65 26 -82 30 -16 3 -6 -4 23 -16 75 -30 126 -81 147 -150 11
-33 15 -67 11 -83 l-6 -26 -62 41 c-155 106 -330 159 -592 182 -28 2 -26 4 40
48 136 91 216 118 369 127 128 7 103 19 -43 21 -100 1 -107 8 -43 40 117 60
278 91 461 88 122 -2 140 -5 192 -29z m-1603 -44 c77 -43 178 -113 204 -141
17 -19 15 -21 -91 -71 -97 -45 -311 -126 -317 -120 -4 4 21 162 40 261 17 83
19 88 49 96 46 13 44 14 115 -25z m8420 -161 c1 -28 -7 -37 -76 -86 -43 -29
-85 -58 -92 -62 -17 -10 9 28 93 138 64 84 74 85 75 10z m-1095 -88 c-9 -14
-19 -23 -22 -20 -5 4 26 45 35 45 2 0 -4 -11 -13 -25z m-7814 -16 c30 -11 32
-14 26 -48 -8 -50 -37 -85 -74 -89 -17 -2 -35 -9 -41 -16 -26 -31 -41 -525
-22 -740 6 -70 12 -92 27 -103 10 -7 25 -11 33 -8 35 14 99 -101 71 -129 -6
-6 -41 -11 -79 -11 -56 0 -74 4 -108 27 -72 47 -82 84 -93 322 -9 221 2 599
20 668 27 97 145 160 240 127z m504 -119 c-49 -39 -142 -108 -206 -152 -65
-45 -116 -83 -114 -85 10 -10 245 102 354 168 60 36 62 37 43 11 -25 -34 -142
-148 -201 -195 -49 -39 -189 -127 -202 -127 -4 0 -8 43 -8 96 0 95 0 96 35
137 20 23 43 62 52 88 17 46 17 46 77 57 34 7 102 25 151 41 50 16 94 29 99
30 5 1 -31 -31 -80 -69z m8436 -7 c1 -21 7 -56 15 -78 8 -22 15 -41 15 -42 0
-2 -8 -3 -17 -3 -11 -1 -7 -6 12 -14 49 -22 85 -77 85 -130 0 -76 -45 -84
-137 -26 -27 17 -60 30 -77 29 -31 0 -31 -1 8 -15 22 -8 61 -28 88 -45 39 -25
56 -30 83 -26 25 4 35 2 35 -8 0 -13 -148 -69 -276 -104 -70 -19 -218 -44
-339 -57 -58 -7 -59 -7 -25 -15 130 -31 390 -28 552 6 89 19 88 19 88 -10 0
-29 -21 -36 -170 -59 -146 -22 -286 -28 -388 -17 -98 12 -290 67 -276 80 5 4
38 18 74 30 96 34 251 113 362 186 54 36 98 67 98 69 0 2 -57 -20 -127 -51
-444 -191 -732 -224 -820 -93 -27 40 -30 59 -5 37 10 -9 40 -26 67 -39 66 -30
215 -32 325 -4 185 47 279 97 546 295 104 77 192 141 197 141 4 0 7 -17 7 -37z
m-5945 -73 c178 -20 176 -15 29 -85 -71 -34 -148 -73 -171 -88 -41 -26 -43
-26 -43 -7 0 30 27 91 53 119 21 22 21 23 1 11 -29 -18 -60 -67 -89 -140 -14
-35 -43 -92 -66 -127 -55 -83 -68 -125 -67 -203 l0 -65 13 64 c7 35 23 85 35
111 20 44 32 54 129 109 130 74 284 146 416 196 97 36 335 105 362 105 15 0
-73 -182 -158 -326 -67 -114 -176 -278 -251 -377 -38 -50 -58 -85 -56 -99 2
-18 21 -3 106 87 143 150 255 291 389 493 63 94 118 174 122 177 4 2 30 -7 57
-21 27 -14 73 -32 102 -40 l53 -16 -51 -61 c-116 -142 -429 -567 -417 -567 2
0 136 137 297 305 l292 305 79 -1 c43 -1 79 -3 79 -6 0 -3 -243 -301 -299
-367 -25 -29 246 146 326 212 47 38 59 36 71 -11 7 -27 4 -39 -21 -77 -34 -50
-281 -377 -321 -425 l-25 -30 0 40 c-1 53 28 113 81 171 44 48 26 48 -25 0
-38 -35 -63 -97 -72 -175 -3 -36 -15 -83 -26 -105 l-20 -41 23 28 c58 71 464
487 472 484 5 -2 19 -16 30 -31 47 -63 8 -220 -78 -314 -80 -87 -268 -311
-390 -465 -60 -75 -111 -135 -114 -133 -6 6 65 180 113 276 35 70 50 89 83
108 41 22 124 107 144 146 6 12 -9 -1 -33 -28 -59 -67 -149 -123 -218 -137
l-57 -12 -39 -75 c-50 -93 -84 -123 -136 -120 -75 4 -120 -79 -126 -232 -2
-52 -5 -116 -7 -141 l-3 -46 136 1 c129 1 139 3 196 30 43 21 86 55 149 120
93 95 96 96 35 6 -52 -77 -139 -156 -206 -188 -54 -24 -66 -26 -189 -24 l-131
2 -37 -29 c-37 -30 -108 -51 -171 -51 -80 0 -116 -34 -185 -171 -27 -52 -65
-117 -85 -143 -20 -26 -35 -49 -33 -50 2 -1 28 -20 58 -43 72 -53 126 -80 196
-98 l58 -15 72 45 c273 171 568 517 794 932 19 34 36 61 38 59 6 -7 -121 -293
-187 -422 -178 -343 -366 -546 -556 -598 l-60 -16 85 4 c47 3 95 8 108 12 31
9 29 -16 -4 -55 -33 -40 -108 -62 -216 -63 -143 -2 -266 40 -393 136 -96 72
-142 94 -233 112 -134 27 -482 15 -482 -16 0 -4 30 -10 68 -14 186 -17 191
-18 186 -31 -3 -8 8 -14 33 -18 50 -8 92 -51 100 -103 7 -45 27 -79 51 -89 9
-4 44 -13 76 -20 67 -14 142 -3 272 40 71 24 71 24 129 6 69 -21 66 -24 -61
-64 -142 -45 -247 -61 -404 -61 -167 0 -270 17 -430 70 -109 36 -306 133 -303
148 1 5 22 18 48 29 l46 20 42 -31 c155 -111 336 -169 627 -200 36 -4 72 -11
80 -15 8 -5 7 -2 -3 7 -11 8 -38 17 -60 21 -102 16 -157 56 -157 116 0 19 -10
40 -26 56 -25 25 -27 25 -133 18 -84 -5 -116 -3 -142 8 -33 14 -82 61 -91 89
-5 13 -26 5 -223 -80 -44 -19 -78 -26 -126 -26 -57 -1 -72 3 -117 31 -41 25
-49 28 -39 12 7 -11 35 -31 64 -45 42 -21 64 -25 111 -23 54 4 62 1 94 -27 20
-18 57 -46 82 -64 l46 -31 -19 -27 c-35 -48 -95 -100 -151 -131 l-55 -30 50
-22 c81 -36 138 -29 390 46 11 3 -8 -8 -43 -24 -89 -43 -234 -91 -273 -91 -19
0 -69 18 -117 41 l-83 42 68 38 c71 40 145 97 108 83 -225 -81 -215 -79 -325
-78 -179 1 -401 62 -481 133 -43 38 -133 157 -179 236 l-23 40 33 -40 c57 -68
152 -155 210 -190 193 -117 467 -151 676 -83 l69 23 -155 6 c-215 9 -326 48
-491 171 -227 167 -422 451 -524 759 -44 135 -45 156 0 55 77 -177 221 -374
391 -535 127 -120 150 -131 73 -34 -86 108 -193 271 -245 376 -37 73 -108 257
-101 263 1 1 85 -16 187 -37 219 -46 353 -86 434 -132 l60 -33 46 -136 c44
-126 127 -309 166 -361 16 -22 16 -21 10 13 -25 149 -33 362 -17 460 l7 45 13
-45 c22 -84 27 -90 58 -80 15 4 66 11 113 14 78 5 168 25 197 44 9 6 8 22 -7
68 -31 101 -43 216 -37 353 8 189 39 268 157 409 33 40 57 72 52 72 -7 0 -40
-20 -165 -97 -4 -2 21 40 54 93 80 127 107 189 120 277 6 40 22 114 36 164 14
51 28 132 31 180 l7 88 75 17 c202 48 276 54 425 38z m-2271 -77 c-101 -222
-270 -453 -423 -580 l-65 -53 -33 37 c-18 20 -32 37 -31 38 2 2 40 30 84 63
165 122 313 284 439 480 32 50 60 92 61 92 2 0 -13 -35 -32 -77z m6090 -93
c40 -56 33 -73 -24 -61 l-35 7 -3 64 c-4 73 3 72 62 -10z m-6684 -204 l0 -235
-40 17 -40 17 0 202 0 203 33 14 c17 8 35 15 40 15 4 1 7 -104 7 -233z m9040
-33 l0 -203 -36 -15 c-20 -8 -38 -15 -40 -15 -2 0 -4 105 -4 234 l0 235 40
-17 40 -17 0 -202z m-9160 37 c0 -162 -2 -190 -15 -190 -13 0 -15 27 -15 183
0 101 3 187 7 190 19 20 23 -9 23 -183z m9228 -37 c-2 -138 -6 -187 -15 -191
-10 -3 -13 39 -13 187 0 164 2 191 15 191 13 0 15 -25 13 -187z m2 -252 c5
-11 10 -40 10 -65 0 -44 -1 -47 -40 -62 -63 -25 -78 -55 -100 -206 -12 -73
-32 -189 -46 -257 -28 -138 -24 -174 23 -210 20 -17 24 -26 18 -50 -3 -16 -14
-36 -24 -45 -17 -16 -20 -14 -51 21 -40 45 -70 108 -70 148 0 17 11 89 25 160
14 72 34 196 45 278 11 81 26 160 34 175 15 28 53 66 96 96 l25 18 -25 -7
c-64 -18 -123 -77 -150 -149 -6 -16 -19 -90 -30 -165 -11 -76 -31 -194 -45
-264 -20 -103 -23 -136 -15 -178 5 -28 13 -56 16 -62 5 -8 4 -9 -3 -2 -17 17
-33 75 -33 120 0 23 11 96 24 161 13 66 32 173 41 239 10 66 26 141 37 167 23
55 81 111 142 139 53 24 83 24 96 0z m-9168 -20 c83 -53 98 -90 123 -296 9
-71 27 -190 41 -264 31 -167 24 -210 -50 -291 l-31 -34 35 26 c19 14 48 44 65
67 41 58 43 126 11 331 -14 91 -32 211 -40 268 -11 84 -20 113 -46 155 -23 38
-26 47 -11 33 45 -41 70 -115 86 -256 9 -74 24 -187 35 -251 11 -64 20 -131
20 -150 -1 -75 -57 -174 -122 -217 -36 -23 -39 -24 -62 -8 -15 9 -30 33 -37
58 -10 39 -9 44 13 63 41 35 58 68 58 110 0 22 -16 147 -34 278 -37 258 -40
268 -108 303 -28 15 -34 36 -22 82 8 29 21 28 76 -7z m4528 -15 c0 -25 -17
-54 -77 -132 -43 -55 -86 -111 -96 -124 -25 -36 36 89 100 202 30 54 59 95 64
92 5 -3 9 -20 9 -38z m-4031 -123 c45 -43 51 -53 33 -53 -60 0 -259 104 -250
130 2 5 21 23 43 39 l40 30 39 -47 c22 -26 64 -71 95 -99z m-849 10 c6 -23 24
-145 40 -270 29 -220 50 -350 71 -442 5 -24 7 -46 4 -49 -10 -11 -66 53 -90
103 -36 75 -103 525 -93 619 3 23 16 64 28 91 23 49 24 49 27 20 2 -16 8 -49
13 -72z m106 -310 c24 -170 29 -231 18 -220 -7 7 -53 327 -54 371 0 66 13 8
36 -151z m600 125 c78 -84 146 -214 170 -329 9 -41 16 -127 17 -191 1 -65 3
-118 4 -118 5 0 54 163 61 205 l8 50 33 -84 c66 -171 141 -471 157 -635 l7
-68 -24 7 c-48 15 -266 129 -345 180 l-82 53 -37 112 c-20 61 -35 114 -32 116
3 3 26 -11 52 -30 25 -20 53 -36 61 -36 11 0 13 -9 8 -40 -11 -68 0 -89 64
-117 31 -13 68 -34 81 -46 l24 -22 -12 23 c-7 13 -37 34 -66 47 -72 32 -86 55
-78 122 6 51 5 53 -18 53 -13 0 -43 16 -67 34 -24 19 -48 36 -53 38 -6 2 -21
42 -35 88 -23 80 -24 87 -9 119 33 71 35 121 11 264 -22 132 -22 137 -5 182
32 85 45 88 105 23z m8978 -167 c-31 -180 -44 -234 -44 -184 0 31 58 362 66
374 3 6 7 9 9 7 2 -2 -12 -90 -31 -197z m-5494 103 c0 -6 -53 -77 -73 -99 -11
-12 31 75 45 93 11 12 28 16 28 6z m-206 -301 c-42 -65 -80 -122 -86 -128 -19
-19 -4 147 17 190 19 38 22 40 67 40 25 0 50 3 54 8 4 4 11 7 16 7 4 0 -26
-53 -68 -117z m-3640 101 c37 -14 21 -144 -18 -144 -31 0 -48 -30 -40 -74 20
-121 167 -579 223 -696 26 -55 26 -55 72 -55 51 0 80 -19 105 -67 13 -25 12
-28 -12 -47 -67 -53 -171 -47 -239 12 -26 24 -46 57 -74 129 -105 262 -222
654 -223 749 -1 40 5 66 21 95 37 67 134 118 185 98z m9181 -53 c67 -30 115
-104 115 -177 0 -29 -74 -295 -122 -439 -63 -189 -138 -377 -164 -411 -52 -70
-164 -94 -239 -51 -53 30 -55 50 -8 97 36 35 43 38 79 33 27 -3 43 -1 51 8 41
50 253 690 253 765 0 15 -10 30 -27 41 -16 9 -34 23 -40 32 -14 15 -18 103 -6
114 12 13 68 7 108 -12z m-7484 -53 c-16 -29 -37 -81 -47 -116 -10 -34 -20
-61 -23 -60 -44 21 -133 74 -156 93 l-30 24 25 1 c39 1 149 43 205 78 28 17
51 32 53 32 2 0 -10 -24 -27 -52z m-1415 -398 l71 -220 -42 0 -41 0 -63 196
-63 197 29 23 c15 13 30 23 33 24 3 0 37 -99 76 -220z m8627 162 l26 -27 -62
-190 -62 -190 -40 -6 c-22 -4 -41 -6 -42 -5 -4 4 142 445 148 446 3 0 17 -12
32 -28z m-8749 -196 c61 -191 60 -186 46 -186 -8 0 -120 329 -120 353 0 4 4 7
9 7 5 0 34 -78 65 -174z m8836 136 c0 -24 -112 -352 -120 -352 -6 0 -10 3 -10
6 0 21 114 354 121 354 5 0 9 -4 9 -8z m-5690 -150 c0 -4 -28 -34 -61 -67 -34
-33 -58 -53 -53 -45 20 36 76 109 87 114 19 7 27 7 27 -2z m2207 -132 c43 -27
74 -50 70 -50 -5 0 -56 19 -115 42 -83 32 -102 43 -87 49 37 14 54 9 132 -41z
m2757 -115 c-13 -88 -74 -165 -171 -214 -59 -30 -73 -26 -27 7 88 65 147 154
175 267 l13 50 8 -35 c4 -19 5 -53 2 -75z m-7803 -32 c30 -27 66 -91 161 -282
l123 -246 0 -86 c0 -78 -3 -90 -30 -134 -41 -66 -57 -75 -92 -49 -15 12 -34
32 -42 46 -13 22 -12 30 7 70 12 24 22 55 22 68 0 13 -40 103 -88 200 -48 96
-100 203 -114 237 -28 68 -70 103 -121 103 -30 0 -47 28 -47 76 0 21 5 24 33
24 38 0 113 -33 145 -63 13 -12 68 -112 122 -222 55 -110 115 -229 134 -264
43 -76 48 -148 16 -221 l-20 -45 24 29 c13 16 30 49 36 73 24 83 12 120 -124
396 -114 229 -133 262 -179 303 -29 26 -41 41 -29 35 13 -7 41 -29 63 -48z
m7579 42 c0 -10 -165 -113 -245 -153 -44 -22 -113 -51 -154 -66 -68 -24 -391
-107 -391 -100 0 2 61 38 136 80 223 126 409 202 557 229 85 16 97 17 97 10z
m808 -7 c17 -17 15 -73 -3 -108 -13 -25 -22 -30 -51 -30 -68 0 -90 -24 -164
-171 -38 -75 -92 -176 -121 -224 -59 -101 -69 -146 -44 -199 17 -36 17 -38 -2
-64 -31 -41 -49 -39 -75 10 -16 31 -22 60 -22 104 0 56 6 70 62 170 33 60 93
175 132 255 79 164 112 202 192 230 l53 18 -39 1 c-51 0 -117 -32 -156 -76
-17 -19 -58 -90 -91 -157 -34 -67 -90 -175 -126 -239 -57 -103 -66 -126 -73
-190 -4 -45 -8 -59 -10 -38 -6 93 8 139 74 248 19 32 68 124 110 206 79 156
99 184 155 219 65 39 175 59 199 35z m-3259 -173 c223 -279 469 -491 639 -551
154 -54 356 -12 657 139 55 27 150 69 210 92 114 44 316 108 322 101 2 -2 -32
-16 -74 -31 -138 -50 -304 -124 -458 -204 -321 -167 -497 -211 -648 -160 -176
59 -475 338 -679 634 -51 75 -91 140 -51 85 10 -14 47 -61 82 -105z m2916 24
c-23 -45 -34 -54 -88 -79 -97 -43 -233 -86 -332 -103 -102 -18 -222 -31 -215
-24 3 3 58 19 122 36 64 17 160 47 213 66 92 33 290 126 310 146 17 17 15 9
-10 -42z m-8417 -234 c27 -55 84 -170 126 -255 42 -85 94 -188 116 -228 36
-67 37 -73 17 -66 -86 26 -132 85 -246 318 -117 238 -141 301 -141 369 0 117
1 116 128 -138z m9022 105 c0 -79 -16 -120 -129 -332 -105 -199 -156 -275
-209 -315 -61 -46 -81 -44 -52 5 12 20 28 53 35 72 7 19 38 78 70 130 31 52
104 192 163 311 61 123 110 212 114 205 4 -6 8 -40 8 -76z m-8368 26 c57 -19
141 -46 188 -61 60 -18 90 -33 103 -50 10 -14 14 -25 10 -25 -20 0 -218 52
-306 80 -82 26 -99 35 -112 60 -19 36 -19 44 0 36 8 -3 61 -21 117 -40z m-524
-263 c81 -165 116 -265 45 -128 -67 131 -142 295 -134 295 4 0 44 -75 89 -167z
m8730 128 c-15 -41 -183 -341 -186 -333 -4 13 170 342 181 342 5 0 7 -4 5 -9z
m-8433 -211 c24 -46 20 -95 -10 -114 -14 -9 -25 -26 -25 -37 0 -35 176 -298
343 -514 124 -161 157 -186 188 -149 9 11 22 14 43 10 32 -7 96 -51 96 -67 0
-5 -17 -26 -38 -47 -69 -69 -170 -76 -249 -16 -64 49 -365 451 -475 636 -22
37 -44 86 -49 108 -17 75 24 166 91 201 48 26 67 24 85 -11z m8119 -24 c70
-41 106 -130 86 -208 -23 -84 -357 -556 -493 -695 -59 -61 -98 -77 -172 -71
-59 5 -118 41 -138 85 -10 23 -8 28 18 49 42 34 70 39 110 20 22 -11 41 -14
50 -9 63 36 485 617 485 668 0 12 -11 31 -25 43 -29 25 -32 57 -11 107 18 42
35 44 90 11z m-7726 -333 c73 -103 129 -190 125 -193 -5 -4 -22 -10 -39 -13
-31 -6 -34 -3 -130 131 -54 75 -107 149 -118 164 -19 27 -19 28 0 63 10 19 21
35 24 35 3 -1 65 -85 138 -187z m7422 91 c0 -13 -215 -310 -231 -320 -5 -3
-27 -3 -49 1 l-39 7 67 86 c38 48 90 119 117 157 26 39 59 85 73 103 l24 34
19 -29 c10 -15 19 -33 19 -39z m-7614 -41 c9 -16 59 -85 110 -155 51 -70 89
-130 84 -133 -4 -3 -22 12 -38 32 -55 71 -192 266 -192 274 0 18 18 8 36 -18z
m7664 -11 c0 -17 -212 -297 -227 -301 -11 -2 -6 11 16 40 18 24 69 95 114 156
76 104 97 127 97 105z m-7169 -305 c21 -12 95 -85 167 -162 71 -77 156 -165
187 -195 73 -69 97 -120 97 -209 0 -74 -22 -141 -46 -141 -25 0 -64 18 -85 39
-17 17 -20 29 -15 65 4 25 3 57 0 71 -8 30 -352 391 -394 414 -15 8 -42 11
-69 8 -38 -4 -46 -1 -63 21 -41 51 -21 72 70 72 71 0 119 -29 216 -131 49 -51
144 -147 211 -212 134 -130 145 -149 145 -250 0 -42 3 -56 8 -42 5 11 9 50 9
86 1 50 -4 75 -21 107 -13 22 -115 135 -228 250 -166 169 -214 212 -250 225
-40 15 -41 16 -10 11 19 -3 51 -16 71 -27z m6887 -13 c37 -15 42 -44 16 -84
-28 -42 -44 -50 -90 -43 -23 3 -55 2 -69 -1 -30 -8 -391 -352 -414 -394 -8
-15 -11 -42 -8 -69 4 -38 1 -46 -21 -63 -51 -41 -72 -21 -72 70 0 71 29 119
131 216 51 49 147 144 212 211 130 134 151 146 251 145 42 0 55 3 41 8 -11 5
-50 9 -86 9 -50 1 -75 -4 -107 -21 -22 -13 -135 -115 -250 -228 -176 -172
-212 -212 -223 -248 -6 -23 -14 -40 -17 -38 -2 3 4 28 13 57 15 44 33 67 109
138 50 47 144 137 208 200 64 63 129 121 144 129 58 30 165 33 232 6z m-6858
-731 c135 -133 135 -133 100 -133 -89 0 -178 71 -416 328 -123 132 -151 176
-161 248 l-6 47 174 -179 c95 -99 234 -239 309 -311z m7036 341 c-29 -63 -97
-137 -294 -320 -141 -132 -185 -161 -258 -171 l-46 -6 148 144 c82 78 221 216
309 306 154 156 160 161 163 133 2 -17 -8 -54 -22 -86z m-7168 -125 c72 -74
132 -141 132 -149 0 -12 -271 262 -279 283 -8 21 19 -4 147 -134z m6987 93
c-11 -10 -77 -74 -147 -142 -71 -68 -131 -121 -134 -118 -8 9 269 277 286 278
11 0 10 -5 -5 -18z m-6670 -89 c29 -44 31 -64 9 -98 -9 -13 -13 -32 -10 -42
17 -54 615 -493 671 -493 12 0 31 11 43 25 25 29 57 32 107 11 41 -18 43 -34
13 -88 -40 -70 -140 -112 -215 -88 -83 27 -495 318 -667 472 -76 68 -96 104
-96 175 0 51 30 120 50 115 6 -1 9 2 6 7 -7 11 31 41 51 41 7 0 24 -17 38 -37z
m6295 -22 c79 -83 74 -190 -15 -276 -106 -104 -476 -373 -633 -462 -78 -44
-144 -49 -209 -15 -79 41 -115 132 -63 159 43 22 95 17 114 -12 9 -14 26 -25
37 -25 35 0 298 176 514 343 161 124 186 157 149 188 -11 9 -14 22 -10 43 7
33 51 96 68 96 6 0 28 -17 48 -39z m-5677 -294 l38 -30 -28 -18 c-15 -11 -33
-19 -39 -19 -13 0 -310 215 -320 231 -3 5 -3 27 1 49 l7 39 151 -111 c84 -61
169 -125 190 -141z m5320 177 c6 -30 2 -34 -145 -140 -192 -139 -174 -129
-214 -108 -19 10 -34 21 -34 24 2 12 374 270 380 263 4 -5 10 -22 13 -39z
m-5495 -204 c94 -70 115 -90 93 -90 -17 0 -296 211 -299 227 -4 16 18 1 206
-137z m5520 104 c-25 -24 -291 -214 -300 -214 -5 0 -8 4 -6 9 5 15 302 228
311 223 5 -2 3 -10 -5 -18z m-4993 -186 c55 -31 163 -88 239 -127 77 -39 152
-83 168 -98 59 -56 104 -195 79 -242 -14 -26 -67 -29 -111 -6 -25 13 -30 22
-30 51 0 66 -24 90 -165 161 -71 36 -172 90 -224 120 -107 63 -151 73 -205 48
-36 -17 -38 -17 -64 2 -41 31 -39 49 10 75 31 16 60 22 104 22 56 0 70 -5 160
-57 55 -31 169 -90 255 -132 174 -85 212 -116 240 -197 l18 -53 1 39 c0 51
-32 117 -76 156 -19 17 -90 58 -157 91 -67 34 -175 90 -239 126 -102 56 -127
66 -190 73 l-73 8 80 -1 c77 -2 83 -4 180 -59z m4591 6 c65 -40 74 -56 48 -91
-12 -15 -32 -34 -46 -42 -22 -13 -30 -12 -70 7 -24 12 -55 22 -68 22 -13 0
-103 -40 -200 -88 -96 -48 -203 -100 -237 -114 -68 -28 -103 -70 -103 -121 0
-30 -28 -47 -76 -47 -21 0 -24 5 -24 33 0 38 33 113 63 145 12 13 112 68 222
122 110 55 229 115 264 134 76 43 148 48 221 16 l45 -20 -29 24 c-16 13 -49
30 -73 36 -83 24 -120 12 -395 -124 -212 -105 -264 -135 -297 -171 -53 -58
-53 -42 0 19 35 40 73 62 267 158 297 147 274 138 364 135 65 -3 85 -8 124
-33z m-4956 -389 c14 -4 115 -56 225 -115 110 -59 253 -135 318 -167 128 -65
131 -73 24 -73 -75 1 -120 18 -329 129 -199 105 -275 156 -315 209 -48 63 -44
80 10 49 23 -13 53 -28 67 -32z m5096 1 c-30 -71 -94 -118 -298 -219 -289
-143 -357 -164 -446 -141 -21 6 -16 11 40 39 83 43 227 115 418 209 85 42 187
93 225 114 39 21 71 38 73 36 2 -1 -4 -18 -12 -38z m-4486 -4 c35 -35 38 -42
33 -78 -3 -27 -1 -43 8 -51 51 -42 689 -253 766 -253 17 0 30 10 44 35 23 39
46 48 105 43 35 -3 39 -6 42 -32 9 -72 -59 -164 -135 -185 -56 -16 -67 -15
-229 30 -273 74 -618 199 -680 245 -65 48 -93 158 -58 227 36 70 51 73 104 19z
m505 -38 c116 -38 212 -70 214 -72 3 -1 -8 -16 -25 -32 l-29 -29 -190 61
c-104 33 -191 61 -191 62 -1 0 -4 20 -7 44 -4 31 -2 42 6 39 7 -2 107 -35 222
-73z m3375 -25 c15 -55 -2 -124 -41 -172 -24 -29 -54 -45 -158 -86 -267 -105
-627 -212 -722 -213 -93 -2 -164 54 -190 146 -14 51 -4 74 35 81 39 8 106 -17
106 -39 0 -31 30 -48 74 -40 121 20 579 167 696 223 55 26 55 26 55 72 0 50
13 72 60 101 30 18 30 18 52 -7 12 -14 27 -44 33 -66z m-390 43 l0 -38 -196
-63 -197 -63 -23 29 c-13 15 -23 30 -24 33 0 7 398 137 423 139 13 1 17 -7 17
-37z m-3798 -69 c182 -96 173 -91 166 -98 -4 -4 -332 165 -346 179 -21 21 39
-6 180 -81z m4513 30 c-131 -68 -295 -142 -295 -134 0 9 329 169 350 170 8 0
-16 -16 -55 -36z m-3086 -42 c86 -17 200 -37 254 -45 54 -9 114 -25 135 -35
50 -26 96 -76 121 -131 38 -84 23 -110 -63 -110 -44 0 -47 1 -62 40 -25 63
-55 78 -206 100 -73 12 -189 32 -257 46 -138 28 -174 24 -210 -23 -17 -20 -26
-24 -50 -18 -16 3 -36 14 -45 24 -16 17 -14 20 21 51 45 40 108 70 148 70 17
0 89 -11 160 -25 72 -14 196 -34 278 -45 81 -11 160 -26 175 -34 28 -15 68
-54 95 -96 21 -30 22 -21 3 23 -18 44 -72 96 -123 119 -23 10 -104 27 -180 38
-76 11 -195 31 -265 44 -105 21 -137 24 -179 16 -28 -5 -56 -13 -62 -16 -7 -4
-8 -3 -4 2 15 16 71 32 116 33 24 1 114 -12 200 -28z m1804 5 c84 -30 176
-121 161 -159 -8 -21 -42 -43 -80 -51 -26 -6 -35 -3 -50 16 -51 64 -83 69
-263 38 -64 -10 -163 -24 -221 -30 -58 -6 -114 -13 -125 -17 -27 -7 -64 -42
-82 -77 -13 -26 -18 -28 -55 -23 -22 3 -42 8 -45 11 -11 11 23 72 62 112 48
48 79 57 260 79 72 9 190 27 264 41 164 30 211 23 285 -45 25 -23 27 -23 18
-5 -16 30 -67 72 -109 89 -50 21 -115 19 -298 -10 -88 -13 -206 -31 -263 -39
-84 -11 -113 -20 -155 -46 -38 -23 -47 -26 -33 -11 41 45 115 70 256 86 74 9
182 24 240 34 128 23 183 24 233 7z m-2456 -63 c95 -31 173 -60 173 -65 0 -4
-5 -8 -11 -8 -25 0 -349 112 -349 121 0 13 -1 14 187 -48z m3023 37 c0 -11
-349 -125 -357 -116 -11 10 0 15 173 70 188 61 184 60 184 46z m-1388 -180
l-17 -40 -202 0 -203 0 -15 36 c-8 20 -15 38 -15 40 0 2 105 4 234 4 l235 0
-17 -40z m-682 -88 c15 -12 26 -31 28 -50 2 -17 9 -35 16 -41 31 -26 503 -40
730 -22 79 6 102 12 113 27 7 10 11 25 8 33 -14 35 101 99 129 71 6 -6 11 -41
11 -79 0 -56 -4 -74 -27 -108 -47 -72 -84 -82 -322 -93 -223 -9 -599 2 -669
21 -72 19 -137 106 -137 185 0 12 5 36 11 54 11 30 14 32 48 26 19 -3 47 -14
61 -24z m650 -7 c0 -13 -25 -15 -187 -13 -138 2 -187 6 -191 16 -3 9 39 12
187 12 164 0 191 -2 191 -15z m-929 -165 c95 -16 178 -35 183 -41 8 -7 4 -9
-14 -5 -14 3 -106 20 -205 37 -99 17 -182 32 -184 35 -10 10 59 2 220 -26z
m-353 0 c42 -4 192 -28 332 -53 140 -25 296 -52 345 -60 l90 -14 -55 -26 c-68
-33 -126 -34 -300 -7 -306 47 -408 76 -479 135 -28 25 -44 54 -21 40 6 -4 45
-10 88 -15z m2042 10 c-14 -5 -99 -18 -190 -30 -91 -11 -174 -23 -184 -25 -13
-3 -16 -1 -9 6 12 12 296 57 363 57 38 0 41 -1 20 -8z m250 -9 c0 -15 -72 -73
-114 -92 -75 -32 -514 -96 -605 -87 -25 3 -68 15 -96 28 -44 21 -47 24 -25 27
14 2 61 10 105 18 44 8 168 26 275 40 189 25 328 47 400 65 48 11 60 11 60 1z
m-864 -166 c32 -19 73 -37 93 -41 20 -3 41 -7 46 -9 6 -2 -201 -3 -460 -4
-422 0 -465 2 -424 15 26 7 69 29 95 46 l49 33 272 -3 272 -3 57 -34z"/>
<path d="M4638 9901 c-31 -5 -71 -17 -89 -27 -47 -28 -89 -85 -95 -130 l-5
-39 17 30 c27 49 66 86 114 108 37 17 74 21 230 26 102 3 278 3 393 -1 172 -6
214 -10 250 -26 45 -21 95 -69 120 -117 19 -36 22 -13 5 36 -19 56 -56 95
-111 120 -51 22 -62 23 -412 25 -198 1 -385 -1 -417 -5z"/>
<path d="M3755 9754 c-165 -44 -465 -144 -575 -192 -111 -49 -143 -90 -147
-190 l-3 -67 21 62 c28 89 73 132 179 173 261 100 630 210 704 210 48 0 107
-25 154 -64 43 -37 41 -20 -5 34 -70 81 -129 87 -328 34z"/>
<path d="M6014 9762 c-40 -19 -84 -67 -97 -105 -5 -12 5 -7 25 14 43 43 103
69 159 69 119 0 764 -217 822 -278 32 -34 66 -107 68 -147 l1 -30 9 30 c20 63
-23 166 -83 203 -40 24 -253 107 -403 155 -322 105 -427 123 -501 89z"/>
<path d="M2515 9228 c-89 -32 -596 -396 -682 -489 -30 -33 -53 -91 -53 -134 0
-30 23 -105 32 -105 2 0 3 30 3 68 0 106 19 131 217 285 116 90 263 194 390
276 84 54 106 64 156 68 46 4 69 1 107 -16 59 -26 63 -26 39 0 -44 50 -140 71
-209 47z"/>
<path d="M7365 9202 c-22 -11 -49 -29 -59 -41 -23 -26 -19 -26 25 -3 23 11 57
17 104 17 65 0 75 -3 140 -44 100 -63 285 -193 390 -275 222 -174 248 -206
249 -315 0 -53 2 -60 12 -46 42 57 21 168 -43 232 -87 87 -410 327 -590 440
-91 56 -160 67 -228 35z"/>
<path d="M1384 8275 c-38 -19 -71 -49 -130 -121 -148 -180 -341 -451 -399
-559 -41 -79 -26 -186 34 -239 26 -23 26 -19 4 25 -12 23 -18 57 -18 104 0 65
3 75 44 140 78 124 217 317 328 455 128 159 163 184 259 184 68 0 74 9 16 26
-56 15 -83 12 -138 -15z"/>
<path d="M8483 8255 c-18 -8 -33 -15 -33 -17 0 -2 30 -3 68 -3 100 -1 131 -22
255 -179 112 -142 233 -312 318 -446 52 -82 54 -87 54 -155 0 -47 -6 -81 -17
-104 -23 -44 -23 -48 3 -25 51 45 71 135 47 205 -31 91 -392 597 -489 686 -55
50 -142 66 -206 38z"/>
<path d="M5660 7577 c0 -5 11 -23 24 -40 14 -18 41 -66 60 -107 39 -81 48 -73
16 12 -17 47 -98 156 -100 135z"/>
<path d="M5299 7420 c24 -30 54 -77 67 -105 13 -27 24 -43 24 -35 -1 42 -57
134 -107 173 -21 17 -17 9 16 -33z"/>
<path d="M5230 7386 c0 -16 40 -83 61 -101 16 -14 12 -3 -16 40 -42 67 -45 71
-45 61z"/>
<path d="M5299 7333 c12 -17 28 -47 36 -65 l14 -33 1 39 c0 22 -3 37 -6 33 -3
-3 -19 9 -36 26 l-30 32 21 -32z"/>
<path d="M4952 7015 l-63 -62 21 -24 20 -24 56 59 c42 44 54 64 52 84 -2 14
-7 26 -13 27 -5 1 -38 -26 -73 -60z"/>
<path d="M4849 6973 c26 -38 49 -56 33 -27 -6 11 -20 28 -33 39 l-23 20 23
-32z"/>
<path d="M4150 7466 c0 -2 24 -18 54 -34 66 -38 120 -99 145 -166 20 -51 20
-51 20 -16 2 89 -48 167 -122 194 -49 17 -97 28 -97 22z"/>
<path d="M4001 7294 c9 -89 28 -113 118 -144 45 -16 89 -40 120 -67 48 -42 49
-42 53 -18 4 19 -10 40 -74 107 -58 61 -75 74 -63 51 18 -38 16 -39 -33 -14
-46 23 -73 53 -101 109 -12 23 -23 42 -24 42 -2 0 0 -30 4 -66z"/>
<path d="M4467 7235 c50 -74 65 -119 73 -215 8 -104 26 -155 49 -141 11 7 11
16 2 42 -6 19 -15 69 -21 112 -11 87 -43 158 -93 204 l-30 28 20 -30z"/>
<path d="M4332 7101 c-18 -59 -14 -144 9 -205 25 -69 42 -83 23 -19 -8 25 -14
58 -14 72 1 23 8 18 73 -52 40 -43 77 -77 84 -77 33 1 16 29 -72 123 l-96 102
6 48 c7 57 2 60 -13 8z"/>
<path d="M4612 6847 c-18 -6 -59 -36 -93 -65 -49 -44 -58 -57 -48 -68 10 -13
17 -10 45 17 l33 32 88 -71 c48 -39 90 -68 92 -66 3 3 -31 40 -74 84 l-79 80
22 22 c20 20 32 23 105 22 54 -1 74 2 60 7 -43 16 -118 19 -151 6z"/>
<path d="M4338 6760 c18 -18 42 -46 54 -62 19 -28 15 -27 -91 26 -61 31 -111
54 -111 52 0 -5 375 -245 392 -251 13 -4 55 21 47 29 -2 2 -34 19 -71 37 -51
26 -79 49 -116 94 -26 33 -68 71 -92 84 l-45 24 33 -33z"/>
<path d="M4215 6678 c50 -18 73 -35 140 -103 79 -80 136 -114 170 -101 27 10
15 22 -35 35 -41 10 -57 22 -92 64 -24 29 -50 58 -58 65 -26 23 -93 49 -140
55 -45 6 -45 6 15 -15z"/>
<path d="M4639 6502 c-18 -14 -63 -53 -99 -87 -36 -33 -81 -71 -101 -83 -42
-25 -50 -40 -83 -151 -14 -48 -43 -110 -67 -147 -35 -54 -67 -134 -53 -134 2
0 11 18 20 40 l16 41 62 -6 c33 -4 92 -11 130 -16 38 -5 70 -8 73 -6 2 2 -45
21 -104 42 -60 21 -110 40 -112 41 -2 2 1 10 8 18 10 12 18 12 59 -1 75 -23
371 -103 380 -103 11 1 -197 84 -301 121 -50 18 -95 35 -99 38 -9 8 10 81 21
81 4 0 55 -20 112 -43 57 -24 168 -65 246 -91 112 -37 153 -56 190 -87 40 -32
55 -39 92 -39 l44 0 -71 71 c-95 92 -147 191 -78 145 45 -29 41 -17 -11 37
-39 39 -57 67 -73 117 -23 69 -50 117 -101 175 -48 54 -60 58 -100 27z m64
-72 c41 -46 91 -129 83 -138 -2 -2 -55 22 -117 54 l-114 57 44 38 c24 22 47
39 51 39 5 0 28 -22 53 -50z m-29 -144 l130 -72 18 -54 c10 -29 17 -54 15 -55
-6 -5 -437 140 -437 146 0 11 122 109 135 109 5 -1 68 -33 139 -74z"/>
<path d="M4140 6320 c47 -33 92 -50 117 -44 26 7 25 8 -22 24 -74 25 -114 33
-95 20z"/>
<path d="M4310 6262 c-33 -10 -76 -12 -165 -7 -66 3 -131 2 -144 -3 -18 -6 9
-11 104 -16 71 -4 131 -7 134 -8 35 -3 91 5 105 15 33 24 14 34 -34 19z"/>
<path d="M7603 6003 c9 -2 23 -2 30 0 6 3 -1 5 -18 5 -16 0 -22 -2 -12 -5z"/>
<path d="M7141 5969 c16 -17 29 -34 29 -38 0 -4 12 -13 26 -20 31 -14 175 -4
152 10 -7 5 -38 6 -69 3 -65 -7 -92 4 -114 46 -9 17 -24 30 -34 30 -16 0 -15
-4 10 -31z"/>
<path d="M5020 5895 c-30 -7 -95 -25 -144 -39 -94 -28 -230 -35 -280 -16 -36
13 -32 4 7 -17 48 -25 177 -21 309 11 59 14 121 26 136 26 38 0 142 -94 194
-174 35 -55 38 -57 32 -25 -10 52 -48 121 -104 188 -56 67 -59 68 -150 46z"/>
<path d="M5220 5906 c0 -3 20 -34 45 -68 25 -34 45 -67 45 -73 0 -5 7 -68 15
-140 15 -135 18 -182 8 -155 -14 41 -62 94 -112 125 -30 19 -59 35 -63 35 -4
0 3 -16 17 -36 13 -19 27 -56 31 -82 4 -26 15 -64 25 -84 33 -64 26 -104 -31
-182 -58 -79 -63 -114 -29 -191 28 -63 22 -149 -15 -230 -14 -32 -26 -65 -26
-75 0 -27 77 -261 116 -352 19 -46 55 -120 80 -165 l44 -82 41 15 c97 33 225
10 311 -58 38 -30 48 -35 35 -18 -114 162 -231 359 -266 454 -20 50 7 25 49
-46 67 -113 165 -253 257 -366 70 -85 87 -101 102 -93 27 15 39 32 70 108 l29
71 -47 35 c-26 20 -56 46 -66 57 -18 20 -18 21 8 47 l27 27 31 -29 31 -30 -21
42 -21 43 57 45 c32 25 64 44 72 43 13 -3 196 -436 188 -444 -7 -7 -207 122
-207 134 0 8 9 31 21 51 l21 36 -36 -39 c-20 -22 -44 -64 -56 -100 -28 -85
-55 -125 -94 -141 -46 -19 -85 -7 -159 51 -79 63 -156 93 -232 94 -65 0 -145
-18 -128 -28 5 -4 23 -29 38 -56 74 -127 213 -296 324 -393 73 -64 76 -65 119
-59 24 3 48 8 53 11 5 3 -21 34 -57 68 -37 34 -103 107 -148 163 -81 102 -183
260 -174 269 3 3 77 -66 164 -153 246 -246 440 -390 679 -508 222 -108 415
-149 576 -121 46 8 93 18 104 22 31 10 -42 -52 -100 -86 -42 -24 -46 -29 -25
-29 72 0 204 63 303 145 65 54 158 157 205 227 29 45 37 39 47 -34 4 -26 10
-50 14 -52 4 -3 23 70 44 162 82 373 184 594 354 768 141 144 232 193 307 164
31 -11 57 -3 35 11 -36 23 -90 29 -154 18 -43 -8 -69 -9 -75 -3 -6 6 -17 37
-25 70 -9 32 -29 78 -45 102 -35 49 -35 53 -14 108 12 32 14 49 6 71 l-10 28
-1 -33 c-1 -18 -11 -55 -22 -82 -12 -27 -19 -56 -16 -63 3 -7 -3 -19 -14 -25
-16 -10 -19 -8 -24 26 -3 20 -11 66 -18 102 l-11 65 -7 -67 c-15 -145 -54
-223 -126 -254 -42 -18 -77 -18 -113 1 l-28 15 13 -51 c18 -67 28 -191 17
-207 -7 -10 -11 -3 -17 25 -7 40 -65 197 -70 191 -2 -2 4 -34 12 -73 15 -71
14 -240 -2 -278 -6 -15 -12 -10 -36 30 -15 26 -37 59 -48 73 l-19 24 0 -69
c-1 -130 -60 -262 -145 -325 l-41 -30 43 0 c49 0 76 -12 92 -42 11 -20 10 -20
-12 -4 -13 9 -42 16 -64 16 -42 0 -72 -15 -149 -74 -42 -31 -55 -36 -104 -36
-31 0 -62 -4 -68 -8 -25 -16 -34 -52 -28 -110 4 -33 4 -72 0 -86 -9 -35 -62
-94 -115 -128 -51 -32 -37 -37 25 -9 32 15 51 17 90 10 72 -12 159 -10 243 5
l74 13 -29 -24 c-65 -51 -189 -93 -280 -93 -69 0 -188 32 -265 71 -87 43 -196
153 -237 239 -56 115 -74 206 -74 370 1 80 6 161 11 180 l11 35 -5 -39 c-6
-54 11 -224 31 -299 44 -174 154 -316 299 -388 92 -46 96 -46 155 16 l35 36 0
105 c0 99 2 107 24 125 13 10 38 19 55 19 31 0 33 3 54 63 26 73 28 107 6 148
-11 23 -20 29 -32 23 -151 -67 -276 -71 -303 -11 -8 18 -7 39 5 86 9 35 16 73
16 86 0 42 -39 74 -109 91 -36 8 -71 20 -79 27 -12 10 -14 9 -10 -3 2 -8 18
-19 34 -24 84 -25 116 -40 131 -62 14 -22 14 -30 -7 -102 -20 -70 -21 -82 -9
-108 33 -69 144 -81 275 -28 36 14 68 23 72 19 13 -13 6 -83 -13 -125 l-19
-43 -71 6 c-184 14 -346 140 -415 323 -11 32 -26 95 -32 139 l-10 81 42 85
c23 46 53 99 67 117 13 17 20 32 15 32 -18 0 -63 -54 -107 -131 -67 -117 -113
-132 -254 -83 -115 40 -161 26 -288 -87 -100 -89 -138 -109 -205 -108 l-53 1
58 12 c31 7 62 17 66 22 6 5 -25 48 -77 107 -63 72 -82 101 -72 107 13 8 91
23 94 18 17 -26 129 -158 135 -158 4 0 12 5 18 11 9 9 4 27 -18 71 -17 33 -28
62 -26 65 8 7 48 -16 78 -44 23 -21 27 -22 39 -8 15 18 3 31 -62 65 -58 31
-116 35 -224 15 -113 -20 -261 -16 -334 9 -31 11 -36 14 -15 11 129 -18 126
-18 119 1 -5 18 -5 18 6 2 8 -14 25 -18 65 -18 59 0 75 12 52 38 -48 55 -172
289 -218 412 l-28 75 -1 -78 c0 -83 -9 -110 -37 -121 -16 -6 -16 -6 0 12 13
15 16 36 15 108 -1 78 1 95 24 139 23 45 106 135 124 135 4 0 -14 -22 -38 -48
-75 -80 -75 -75 -9 -188 70 -120 144 -238 230 -362 54 -78 68 -93 85 -88 12 3
33 6 49 6 15 0 27 4 27 9 0 5 -21 45 -46 88 -80 134 -180 343 -222 463 -39
111 -139 420 -136 420 3 0 91 -152 118 -205 l26 -50 -6 40 c-8 51 -67 226
-109 328 -18 42 -31 77 -28 77 2 0 14 -5 26 -11 22 -12 22 -12 3 10 -26 28
-111 69 -163 77 -24 4 -43 4 -43 0z m99 -661 l0 -20 -9 20 c-5 11 -9 27 -9 35
-1 13 0 13 9 0 5 -8 9 -24 9 -35z m2641 -506 c0 -9 -21 -34 -47 -55 -27 -21
-84 -70 -128 -108 l-79 -71 34 49 c19 27 73 89 119 138 83 87 100 96 101 47z
m22 -101 c3 -8 -28 -36 -69 -65 -64 -46 -72 -49 -53 -23 22 31 99 100 111 100
4 0 9 -6 11 -12z m-1953 -751 c47 -45 124 -111 171 -146 105 -79 111 -85 80
-73 -41 16 -150 80 -215 127 -72 52 -175 143 -175 155 0 5 10 11 23 13 12 2
24 5 26 6 2 0 43 -36 90 -82z"/>
<path d="M3730 5843 c0 -76 15 -103 70 -130 84 -42 147 -47 333 -27 92 9 164
20 160 24 -7 6 -212 50 -303 66 -15 2 -4 -6 25 -21 l50 -25 -50 0 c-66 0 -158
24 -196 52 -16 12 -40 44 -52 70 -12 26 -25 47 -29 48 -5 0 -8 -26 -8 -57z"/>
<path d="M7455 5827 c-162 -78 -286 -222 -339 -394 -6 -19 -4 -23 16 -23 19 0
29 14 56 72 25 53 55 92 115 153 71 71 173 145 201 145 5 0 -9 -20 -31 -43
-50 -54 -67 -103 -58 -164 12 -80 23 -91 18 -17 -6 83 6 113 73 186 24 26 44
53 44 60 0 22 -12 58 -19 58 -4 0 -38 -15 -76 -33z"/>
<path d="M4155 5815 c28 -8 70 -21 94 -29 45 -17 115 -19 166 -6 l30 8 -31 1
c-18 0 -76 10 -129 21 -53 11 -116 20 -139 19 l-41 0 50 -14z"/>
<path d="M7535 5728 l-40 -43 43 40 c39 36 47 45 39 45 -2 0 -21 -19 -42 -42z"/>
<path d="M5530 5642 c-16 -111 -4 -141 65 -168 25 -9 49 -13 53 -9 4 4 3 9 -3
11 -42 16 -82 43 -92 64 -9 17 -11 50 -6 108 3 45 4 82 1 82 -3 0 -11 -40 -18
-88z"/>
<path d="M5915 5584 c66 -37 108 -80 175 -179 39 -57 91 -120 116 -141 68 -55
81 -72 93 -118 6 -24 17 -49 26 -56 20 -17 19 -42 -4 -71 -42 -54 -44 -67 -20
-112 12 -23 25 -53 29 -67 l8 -25 1 25 c1 14 -8 42 -19 63 -25 47 -25 49 6 86
35 42 49 92 29 107 -8 6 -22 32 -31 58 -12 36 -33 61 -86 109 -39 34 -101 105
-138 157 -85 120 -128 158 -190 174 -22 6 -21 5 5 -10z"/>
<path d="M6160 5564 c-10 -24 -8 -39 16 -172 3 -13 9 -20 14 -17 15 9 12 45
-6 99 -9 25 -14 62 -12 81 5 42 1 44 -12 9z"/>
<path d="M5662 5413 c-25 -60 -36 -153 -24 -213 10 -44 10 -43 11 29 1 41 8
101 17 132 l16 58 32 -24 c17 -13 42 -28 55 -33 21 -8 33 -37 92 -228 37 -120
94 -293 127 -384 l59 -165 55 3 c35 2 75 -3 113 -16 33 -11 73 -23 89 -26 l29
-7 -19 28 c-95 143 -312 565 -375 732 -9 24 -9 24 18 7 l28 -17 -28 25 c-26
24 -111 56 -149 56 -30 0 -74 27 -101 61 l-24 31 -21 -49z"/>
<path d="M6485 5081 c-131 -10 -68 -21 104 -19 106 2 156 6 150 13 -12 12
-140 15 -254 6z"/>
<path d="M7555 4967 c4 -9 27 -16 66 -21 33 -3 73 -13 90 -22 17 -8 28 -11 24
-5 -11 19 -58 38 -105 44 -25 3 -54 9 -63 13 -13 4 -16 2 -12 -9z"/>
<path d="M6442 4834 c-1 -6 -15 -72 -31 -147 -26 -125 -27 -136 -11 -127 10 5
27 24 37 42 16 29 18 47 13 138 -4 58 -7 100 -8 94z"/>
<path d="M8205 4716 c-40 -12 -40 -12 -12 -19 19 -5 38 -1 65 12 33 18 34 20
12 20 -14 0 -43 -6 -65 -13z"/>
<path d="M8581 4715 c-51 -14 -187 -80 -227 -110 -14 -10 -16 -17 -7 -25 8 -9
22 -6 57 15 25 15 46 24 46 20 0 -3 -16 -27 -35 -52 -32 -43 -44 -81 -29 -96
4 -4 39 22 78 57 39 35 104 89 145 120 59 46 80 56 111 56 51 0 80 -12 126
-52 l38 -33 -22 32 c-41 58 -79 78 -157 80 -39 2 -94 -4 -124 -12z"/>
<path d="M8220 4563 c-76 -13 -141 -47 -161 -84 -9 -18 -5 -17 29 6 48 32 121
55 173 55 35 0 41 -4 60 -42 20 -39 20 -43 5 -75 -22 -46 -20 -50 8 -24 18 17
25 19 30 9 3 -7 3 3 0 22 -3 19 -16 59 -29 88 -25 55 -34 59 -115 45z"/>
<path d="M6881 4322 c-1 -7 4 -32 10 -55 13 -53 42 -89 63 -81 13 5 12 9 -8
25 -14 11 -34 43 -45 72 -11 28 -20 46 -20 39z"/>
<path d="M8385 4070 c-8 -16 -15 -41 -15 -55 0 -28 28 -85 42 -85 4 0 8 -4 8
-9 0 -4 -57 -11 -127 -14 -84 -3 -145 -12 -178 -23 l-50 -18 34 -10 c27 -8 53
-5 120 12 47 13 100 22 116 22 36 -1 112 -33 142 -62 24 -23 43 -17 43 13 0
33 -16 55 -69 92 -40 29 -51 44 -57 74 -4 20 -2 49 4 65 14 37 7 36 -13 -2z"/>
<path d="M7113 3983 c-46 -14 -73 -37 -59 -51 10 -10 52 8 86 37 19 17 33 30
30 29 -3 0 -28 -7 -57 -15z"/>
<path d="M5400 3795 c0 -3 12 -28 26 -56 18 -36 30 -49 40 -45 9 3 22 6 30 6
25 0 15 14 -41 58 -30 24 -55 41 -55 37z"/>
<path d="M5904 7172 c28 -46 61 -124 76 -181 9 -32 9 -29 6 21 -5 63 -41 141
-84 180 l-25 23 27 -43z"/>
<path d="M5408 7059 c15 -25 22 -52 22 -85 -1 -48 -1 -48 -15 -24 -18 32 -19
5 -1 -35 l13 -30 6 25 c4 14 8 34 10 45 2 13 9 4 20 -30 l16 -50 -6 50 c-7 59
-36 126 -66 152 -21 18 -21 18 1 -18z"/>
<path d="M5440 7071 c0 -11 4 -22 9 -25 4 -3 6 6 3 19 -5 30 -12 33 -12 6z"/>
<path d="M5330 7019 c0 -16 57 -139 64 -139 5 0 -52 140 -60 149 -2 2 -4 -2
-4 -10z"/>
<path d="M648 7050 c-42 -12 -94 -47 -112 -75 -63 -96 -253 -673 -263 -801 -7
-75 18 -139 68 -176 51 -38 77 -44 40 -9 -41 39 -71 105 -71 162 0 77 105 424
209 691 31 78 51 115 74 134 41 35 104 63 142 65 29 1 30 1 5 9 -32 10 -58 10
-92 0z"/>
<path d="M1045 6690 c-84 -47 -81 -51 10 -10 37 17 78 30 93 30 34 0 109 -82
123 -135 19 -68 65 -159 94 -185 26 -23 25 -21 -8 27 -19 29 -47 89 -62 132
-20 62 -37 92 -74 131 -59 62 -81 64 -176 10z"/>
<path d="M9317 6999 c89 -28 132 -73 173 -179 100 -261 210 -630 210 -704 0
-48 -26 -107 -65 -155 l-29 -34 30 16 c66 34 104 96 104 168 0 94 -132 534
-227 754 -32 74 -45 94 -81 119 -35 25 -54 31 -110 33 l-67 3 62 -21z"/>
<path d="M5531 6618 c35 -87 38 -94 38 -81 1 19 -39 122 -50 128 -5 4 0 -18
12 -47z"/>
<path d="M5661 6555 c-1 -22 -5 -55 -11 -73 -7 -28 -7 -32 4 -23 18 15 28 84
17 113 -9 20 -10 18 -10 -17z"/>
<path d="M5608 6473 c6 -2 18 -2 25 0 6 3 1 5 -13 5 -14 0 -19 -2 -12 -5z"/>
<path d="M5008 6636 c-31 -23 -64 -46 -74 -52 -16 -9 -16 -14 -5 -42 8 -18 16
-32 20 -32 12 0 76 42 104 68 16 15 27 36 27 51 0 49 -12 50 -72 7z"/>
<path d="M8340 6640 c-8 -5 -10 -10 -5 -10 6 0 17 5 25 10 8 5 11 10 5 10 -5
0 -17 -5 -25 -10z"/>
<path d="M8268 6601 c-58 -37 -122 -95 -150 -135 -12 -17 14 3 58 45 43 42 94
84 112 93 17 9 32 19 32 21 0 8 -4 6 -52 -24z"/>
<path d="M8389 6557 c-72 -30 -140 -81 -115 -85 10 -2 38 10 62 27 24 18 63
43 86 56 54 31 40 31 -33 2z"/>
<path d="M8520 6070 c-11 -7 -7 -10 17 -10 24 0 37 -7 54 -32 50 -73 70 -88
119 -88 59 0 84 -18 120 -90 31 -62 62 -91 95 -89 14 0 16 2 5 6 -29 11 -62
49 -91 105 -35 69 -60 88 -117 88 -38 0 -49 5 -78 37 -19 20 -34 40 -34 45 0
8 -53 38 -67 38 -4 0 -15 -5 -23 -10z"/>
<path d="M8700 5804 c0 -16 -63 -52 -102 -59 -42 -8 -42 -25 0 -25 47 0 129
66 108 88 -3 3 -6 1 -6 -4z"/>
<path d="M5151 6335 c-35 -24 -68 -46 -74 -48 -9 -3 -4 -18 21 -55 12 -17 54
2 107 49 34 30 41 51 29 83 -9 22 -11 21 -83 -29z"/>
<path d="M2195 5193 c10 -81 42 -113 112 -113 32 0 60 -15 102 -54 22 -21 30
-24 23 -11 -20 38 -67 73 -122 89 -73 21 -77 25 -101 82 l-20 49 6 -42z"/>
<path d="M1731 5124 c0 -11 3 -14 6 -6 3 7 2 16 -1 19 -3 4 -6 -2 -5 -13z"/>
<path d="M1740 5098 c-1 -19 25 -66 59 -107 49 -60 53 -74 37 -121 -15 -44
-14 -47 8 -24 9 8 16 32 16 52 0 39 -14 66 -60 117 -15 17 -35 44 -43 60 -9
17 -16 27 -17 23z"/>
<path d="M1605 4762 c-16 -11 -37 -27 -45 -38 -8 -10 0 -6 18 9 38 31 73 34
142 13 25 -7 51 -11 58 -8 10 3 9 -4 -3 -28 -9 -18 -18 -58 -21 -89 l-4 -56
13 55 c15 62 42 118 66 138 14 11 13 12 -6 3 -30 -15 -74 -14 -116 4 -47 19
-66 19 -102 -3z"/>
<path d="M1761 4544 c0 -11 3 -14 6 -6 3 7 2 16 -1 19 -3 4 -6 -2 -5 -13z"/>
<path d="M284 5627 c-55 -22 -91 -56 -115 -109 -24 -53 -24 -54 -24 -453 l0
-400 25 -49 c31 -61 84 -105 136 -112 l39 -5 -30 17 c-49 27 -86 66 -108 114
-17 37 -21 74 -26 230 -3 102 -3 278 1 393 6 172 10 214 26 250 21 45 69 95
117 120 23 13 26 16 10 16 -11 0 -34 -6 -51 -12z"/>
<path d="M3063 5295 c3 -22 10 -53 17 -70 10 -25 13 -27 21 -13 6 11 1 32 -17
70 l-26 53 5 -40z"/>
<path d="M2968 5052 c-79 -83 -159 -189 -121 -162 123 89 151 117 177 174 14
33 24 61 22 63 -1 2 -37 -32 -78 -75z"/>
<path d="M3377 4932 l-145 -108 -8 40 c-7 39 -8 37 -14 -34 -7 -89 -17 -120
-83 -270 -50 -114 -51 -116 -55 -235 -3 -81 -1 -117 6 -110 6 6 12 60 14 120
4 108 5 112 58 234 53 118 58 125 120 174 96 75 201 186 233 245 16 29 26 52
24 52 -3 0 -70 -49 -150 -108z"/>
<path d="M3059 4653 c-52 -54 -110 -120 -129 -148 l-34 -49 70 59 c38 33 88
74 111 90 31 22 47 44 63 84 11 30 19 56 17 58 -2 2 -46 -41 -98 -94z"/>
<path d="M4014 4617 c-69 -62 -204 -160 -301 -219 -46 -28 -83 -57 -83 -63 0
-7 -3 -28 -7 -46 -6 -33 -5 -33 58 32 56 58 77 72 159 105 108 44 149 80 199
173 18 34 30 61 28 61 -3 0 -27 -20 -53 -43z"/>
<path d="M3481 4626 c0 -11 -11 -30 -23 -43 -12 -13 -16 -23 -10 -23 6 0 14 6
19 13 5 7 10 -11 14 -45 4 -33 19 -81 36 -115 32 -62 48 -113 36 -113 -5 0
-78 -54 -163 -119 -85 -66 -156 -118 -158 -116 -2 2 39 59 91 127 120 158 124
165 46 93 -72 -67 -350 -359 -362 -380 -8 -16 314 113 383 152 25 14 67 41 94
60 l49 35 -7 -39 -7 -38 20 25 c33 41 54 116 49 179 -3 40 -16 80 -46 141 -30
60 -44 105 -51 155 -5 39 -9 61 -10 51z"/>
<path d="M4110 4628 c0 -27 -50 -118 -85 -157 -22 -24 -74 -60 -128 -88 -119
-63 -177 -117 -255 -238 -77 -119 -241 -288 -348 -358 -40 -26 -77 -47 -83
-47 -6 0 -19 17 -30 38 -11 20 -20 30 -21 21 0 -9 19 -42 42 -75 23 -32 55
-81 70 -109 16 -27 26 -39 23 -25 -4 14 -20 46 -35 72 l-29 48 67 43 c137 89
247 202 359 369 80 120 149 185 242 233 88 44 155 103 186 165 23 46 43 120
31 120 -3 0 -6 -6 -6 -12z"/>
<path d="M4445 4550 c-63 -64 -70 -84 -14 -46 27 19 90 106 76 106 -1 0 -29
-27 -62 -60z"/>
<path d="M2882 4525 c0 -16 2 -22 5 -12 2 9 2 23 0 30 -3 6 -5 -1 -5 -18z"/>
<path d="M2871 4479 c0 -8 -21 -57 -46 -108 -25 -51 -45 -98 -45 -104 1 -7 23
34 51 90 28 57 48 111 46 120 -4 14 -5 15 -6 2z"/>
<path d="M3352 4386 c-11 -25 -38 -57 -59 -73 -21 -15 -71 -61 -111 -101 -58
-57 -92 -82 -168 -119 -108 -52 -134 -79 -165 -172 -27 -80 -55 -120 -110
-156 -70 -48 -169 -76 -287 -82 -56 -3 -109 -11 -118 -18 -15 -10 -14 -16 7
-57 l24 -46 70 38 c97 53 159 72 235 72 48 0 59 2 43 8 -24 10 -32 40 -11 40
6 0 33 14 60 31 54 35 88 86 112 169 19 70 65 115 171 168 57 28 97 58 139
102 33 34 75 73 95 88 20 15 42 34 49 42 17 19 55 100 50 106 -2 2 -14 -16
-26 -40z"/>
<path d="M3907 4190 c-115 -159 -316 -348 -509 -481 -48 -33 -88 -61 -88 -63
0 -8 111 18 168 40 187 70 327 196 417 374 31 61 79 199 72 206 -1 2 -29 -33
-60 -76z"/>
<path d="M2780 4204 c0 -20 44 -139 47 -124 2 8 -8 42 -21 75 -14 33 -25 55
-26 49z"/>
<path d="M1589 3859 c43 -8 100 -51 122 -91 5 -9 16 -54 25 -99 13 -71 46
-159 58 -159 2 0 -4 21 -14 48 -10 26 -23 81 -29 122 -7 41 -20 91 -29 110
-20 42 -90 81 -142 79 -34 -1 -34 -1 9 -10z"/>
<path d="M3771 3780 c-50 -58 -51 -61 -24 -54 15 4 29 7 29 8 4 3 54 106 51
106 -1 0 -26 -27 -56 -60z"/>
<path d="M3864 3760 c-30 -46 -30 -48 -8 -38 12 6 28 23 34 39 21 49 6 49 -26
-1z"/>
<path d="M2945 3709 c-33 -16 -92 -33 -130 -38 l-70 -10 72 4 c71 4 136 25
178 59 27 21 20 19 -50 -15z"/>
<path d="M2992 3627 c-136 -67 -151 -70 -322 -53 -83 8 -87 8 -150 -23 -36
-18 -76 -41 -90 -52 -14 -12 -20 -18 -14 -15 6 3 26 -11 45 -30 19 -20 55 -51
80 -70 l46 -34 109 26 c84 19 146 26 267 30 132 3 165 8 197 24 64 33 57 39
-47 39 -102 0 -170 11 -231 37 l-37 16 25 11 c14 6 76 35 139 65 l114 53 40
-38 40 -38 -20 35 c-36 65 -48 80 -58 79 -5 0 -65 -28 -133 -62z"/>
<path d="M1800 3625 c0 -8 9 -15 21 -15 34 0 55 -17 93 -74 39 -58 70 -86 96
-85 9 0 7 4 -8 11 -12 6 -45 42 -74 80 -59 81 -128 125 -128 83z"/>
<path d="M3496 3565 c-10 -8 -57 -28 -104 -45 -67 -24 -87 -28 -94 -18 -6 10
-8 9 -8 -3 0 -9 -18 -37 -41 -62 l-40 -46 28 -6 c15 -4 52 -15 82 -25 67 -23
80 -17 125 53 38 60 88 167 78 167 -4 0 -15 -7 -26 -15z"/>
<path d="M2358 3353 c55 -70 67 -77 102 -63 l30 12 -77 44 c-42 24 -78 44 -81
44 -2 0 10 -17 26 -37z"/>
<path d="M2774 3215 c24 -14 40 -15 110 -7 l81 9 -70 2 c-38 1 -88 4 -110 7
l-40 5 29 -16z"/>
<path d="M960 3985 c-8 -10 -31 -15 -65 -15 -46 0 -57 -4 -74 -26 -12 -15 -21
-32 -21 -38 0 -7 -13 -33 -30 -59 -21 -33 -25 -47 -16 -47 8 0 26 26 41 58 40
89 38 87 87 88 57 1 74 8 88 33 13 25 8 27 -10 6z"/>
<path d="M920 3703 c1 -11 67 -43 90 -43 10 0 22 4 25 10 3 6 -1 7 -9 4 -9 -3
-31 3 -49 15 -35 22 -57 27 -57 14z"/>
<path d="M355 4151 c-87 -54 -112 -129 -84 -249 45 -190 150 -514 216 -667 32
-74 45 -94 81 -119 35 -25 54 -31 110 -33 l67 -3 -62 21 c-89 28 -132 73 -173
179 -99 257 -210 631 -210 704 0 48 25 107 64 154 32 37 31 38 -9 13z"/>
<path d="M9621 4108 c43 -43 69 -103 69 -159 0 -106 -203 -724 -265 -805 -29
-37 -116 -84 -159 -85 l-31 -1 30 -9 c63 -20 166 23 203 83 66 107 249 669
259 794 7 75 -18 139 -68 176 -53 39 -75 43 -38 6z"/>
<path d="M862 2767 c-47 -50 -64 -130 -40 -198 31 -91 392 -597 489 -686 33
-30 91 -53 134 -53 30 0 105 23 105 32 0 2 -30 3 -68 3 -106 0 -131 19 -285
217 -96 124 -201 271 -278 392 -55 86 -63 107 -67 156 -3 43 1 69 17 105 25
56 23 64 -7 32z"/>
<path d="M9090 2758 c0 -3 8 -20 18 -39 11 -23 17 -57 17 -104 0 -65 -3 -75
-44 -140 -78 -124 -217 -317 -328 -455 -129 -160 -163 -184 -261 -184 -54 0
-61 -2 -47 -12 10 -7 38 -16 62 -20 61 -9 125 17 180 75 90 93 323 407 430
579 54 87 65 147 39 216 -14 35 -66 102 -66 84z"/>
<path d="M1770 1600 c-6 -10 -13 -39 -16 -64 -11 -76 26 -136 142 -231 180
-149 451 -342 559 -400 79 -41 186 -26 239 34 23 26 19 26 -25 4 -23 -12 -57
-18 -104 -18 -68 0 -73 2 -155 54 -111 71 -263 178 -375 265 -221 172 -248
206 -249 314 0 34 -1 62 -3 62 -1 0 -7 -9 -13 -20z"/>
<path d="M8185 1532 c0 -106 -19 -130 -217 -285 -113 -88 -259 -192 -390 -276
-84 -54 -106 -64 -156 -68 -46 -4 -69 -1 -107 16 -59 26 -63 26 -39 0 45 -51
135 -71 205 -47 91 31 597 392 686 489 30 33 53 91 53 134 0 30 -23 105 -32
105 -2 0 -3 -30 -3 -68z"/>
<path d="M2997 778 c-9 -45 -2 -81 29 -135 30 -52 59 -70 219 -131 250 -95
537 -182 631 -189 75 -7 139 18 176 68 39 53 43 75 6 38 -43 -43 -103 -69
-159 -69 -77 0 -415 102 -691 210 -133 51 -178 98 -197 203 l-7 42 -7 -37z"/>
<path d="M6948 733 c-25 -88 -69 -131 -178 -173 -261 -100 -630 -210 -704
-210 -48 0 -107 25 -154 64 -41 36 -34 7 12 -43 38 -41 83 -61 138 -61 87 0
541 136 751 225 71 30 95 46 118 78 32 44 42 83 37 142 l-3 40 -17 -62z"/>
<path d="M4410 391 c-2 -69 69 -160 141 -180 60 -17 405 -27 643 -20 179 6
200 9 243 30 59 30 102 83 109 135 l5 39 -17 -30 c-27 -49 -66 -86 -114 -108
-37 -17 -74 -21 -230 -26 -102 -3 -278 -3 -393 1 -172 6 -214 10 -250 26 -45
21 -95 69 -120 117 -9 17 -16 24 -17 16z"/>
<path d="M9685 5584 c49 -27 86 -66 108 -114 17 -37 21 -74 26 -230 3 -102 3
-278 -1 -393 -6 -172 -10 -214 -26 -250 -21 -45 -69 -95 -117 -120 -36 -19
-13 -22 36 -5 56 19 95 56 120 111 24 52 24 54 24 452 l0 400 -25 49 c-31 61
-84 105 -136 112 l-39 5 30 -17z"/>
</g>
</svg>
